<?xml version="1.0" encoding="UTF-8" standalone="no"?><!DOCTYPE svg PUBLIC "-//W3C//DTD SVG 1.1//EN" "http://www.w3.org/Graphics/SVG/1.1/DTD/svg11.dtd"><svg width="100%" height="100%" viewBox="0 0 64 64" version="1.1" xmlns="http://www.w3.org/2000/svg" xmlns:xlink="http://www.w3.org/1999/xlink" xml:space="preserve" xmlns:serif="http://www.serif.com/" style="fill-rule:evenodd;clip-rule:evenodd;stroke-linejoin:round;stroke-miterlimit:1.41421;"><rect id="check" x="-0.314" y="-0.144" width="64" height="64" style="fill:none;"/><path d="M9.107,5.817l22.919,1.101l22.691,1.068l0.136,0.015l0.132,0.037l0.125,0.057l0.114,0.076l0.101,0.094l0.085,0.107l0.067,0.12l0.047,0.129l0.027,0.134l0.005,0.137l-0.87,-0.036l0.87,0.036l-0.012,0.671l-0.308,17.737l-0.447,23.309l-0.145,6.329l-0.021,0.311l-0.071,0.306l-0.119,0.294l-0.165,0.274l-0.208,0.246l-0.247,0.211l-0.279,0.172l-0.305,0.126l-0.324,0.077l-0.335,0.025l-9.851,-0.368l-12.355,-0.515l-10.939,-0.51l-8.66,-0.475l-1.845,-0.117l-0.417,-0.066l-0.399,-0.136l-0.369,-0.199l-0.329,-0.258l-0.28,-0.309l-0.224,-0.349l-0.14,-0.33l-0.02,-0.052l-0.087,-0.402l-0.018,-0.409l0.251,-14.58l0.351,-15.786l0.27,-14.468l0.027,-2.424l0.031,-0.242l0.068,-0.231l0.103,-0.217l0.136,-0.195l0.165,-0.17l0.188,-0.14l0.206,-0.108l0.22,-0.072l0.226,-0.036l0.228,0.001Zm1.418,2.931l0.008,5.524l0.071,0.057l0.27,11.395l0.351,12.106l0.251,12.457l0.036,-0.03l0.007,1.896l0.015,-0.014l4.446,0.239l0.039,-0.048l6.352,0.34l8.011,0.52l9.153,0.653l11.115,0.772l0.08,0.088l0.394,-9.465l0.196,0.171l1.368,-20.26l1.066,-15.443l-19.202,-0.44l-24.084,-0.577l0.057,0.059Z" style="fill:#001118;"/></svg>