<?xml version="1.0" encoding="UTF-8" standalone="no"?><!DOCTYPE svg PUBLIC "-//W3C//DTD SVG 1.1//EN" "http://www.w3.org/Graphics/SVG/1.1/DTD/svg11.dtd"><svg width="100%" height="100%" viewBox="0 0 64 64" version="1.1" xmlns="http://www.w3.org/2000/svg" xmlns:xlink="http://www.w3.org/1999/xlink" xml:space="preserve" xmlns:serif="http://www.serif.com/" style="fill-rule:evenodd;clip-rule:evenodd;stroke-linejoin:round;stroke-miterlimit:1.41421;"><rect id="check-not" serif:id="check not" x="0" y="-0.144" width="64" height="64" style="fill:none;"/><path d="M9.421,5.817l22.919,1.101l22.691,1.068l0.136,0.015l0.132,0.037l0.125,0.057l0.114,0.076l0.101,0.094l0.085,0.107l0.067,0.12l0.047,0.129l0.027,0.134l0.005,0.137l-0.87,-0.036l0.87,0.036l-0.011,0.671l-0.308,17.737l-0.448,23.309l-0.145,6.329l-0.021,0.311l-0.07,0.306l-0.119,0.294l-0.166,0.274l-0.208,0.246l-0.246,0.211l-0.28,0.172l-0.305,0.126l-0.324,0.077l-0.334,0.025l-9.852,-0.368l-12.355,-0.515l-10.939,-0.51l-8.66,-0.475l-1.845,-0.117l-0.417,-0.066l-0.398,-0.136l-0.369,-0.199l-0.33,-0.258l-0.28,-0.309l-0.224,-0.349l-0.14,-0.33l-0.02,-0.052l-0.087,-0.402l-0.018,-0.409l0.252,-14.58l0.35,-15.786l0.27,-14.468l0.028,-2.424l0.03,-0.242l0.068,-0.231l0.104,-0.217l0.136,-0.195l0.164,-0.17l0.188,-0.14l0.207,-0.108l0.219,-0.072l0.227,-0.036l0.227,0.001Zm1.418,2.931l0.009,5.524l0.071,0.057l0.269,11.395l0.351,12.106l0.251,12.457l0.036,-0.03l0.008,1.896l0.014,-0.014l4.447,0.239l0.038,-0.048l6.352,0.34l8.012,0.52l9.152,0.653l11.115,0.772l0.08,0.088l0.395,-9.465l0.195,0.171l1.368,-20.26l1.067,-15.443l-19.203,-0.44l-24.084,-0.577l0.057,0.059Z" style="fill:#001118;"/><path d="M55.833,12.036l-0.374,0.402l-0.533,0.576l-0.526,0.57l-0.518,0.565l-0.51,0.56l-0.503,0.555l-0.496,0.55l-0.488,0.544l-0.481,0.54l-0.473,0.534l-0.389,0.441l-0.078,0.088l-0.462,0.521l-0.454,0.517l-0.448,0.512l-0.441,0.506l-0.433,0.503l-0.427,0.497l-0.419,0.493l-0.413,0.488l-0.071,0.084l-0.339,0.396l-0.404,0.474l-0.398,0.47l-0.39,0.465l-0.384,0.461l-0.378,0.457l-0.371,0.453l-0.349,0.43l-0.015,0.018l-0.362,0.44l-0.356,0.437l-0.349,0.432l-0.343,0.429l-0.336,0.424l-0.331,0.421l-0.324,0.417l-0.319,0.412l-0.312,0.409l-0.306,0.405l-0.3,0.402l-0.295,0.397l-0.289,0.394l-0.283,0.391l-0.277,0.387l-0.271,0.383l-0.266,0.379l-0.261,0.377l-0.255,0.372l-0.249,0.37l-0.001,0.001l-0.244,0.364l-0.24,0.362l-0.234,0.359l-0.229,0.356l-0.224,0.352l-0.219,0.349l-0.213,0.346l-0.209,0.343l-0.204,0.34l-0.199,0.337l-0.194,0.334l-0.189,0.331l-0.185,0.329l-0.18,0.325l-0.176,0.322l-0.171,0.32l-0.166,0.317l-0.162,0.314l-0.158,0.312l-0.153,0.309l-0.149,0.306l-0.145,0.304l-0.141,0.302l-0.137,0.299l-0.133,0.296l-0.129,0.295l-0.125,0.291l-0.122,0.29l-0.117,0.288l-0.114,0.285l-0.11,0.283l-0.107,0.282l-0.104,0.279l-0.099,0.277l-0.06,0.171l-0.037,0.104l-0.095,0.273l-0.092,0.271l-0.088,0.27l-0.085,0.268l-0.083,0.266l-0.079,0.265l-0.076,0.263l-0.074,0.262l-0.07,0.26l-0.068,0.259l-0.065,0.258l-0.063,0.257l-0.059,0.256l-0.058,0.254l-0.055,0.254l-0.052,0.252l-0.05,0.252l-0.048,0.251l-0.046,0.25l-0.043,0.25l-0.041,0.248l-0.04,0.249l-0.025,0.167l-0.012,0.08l-0.037,0.248l-0.035,0.246l-0.034,0.247l-0.031,0.246l-0.029,0.246l-0.028,0.246l-0.026,0.246l-0.025,0.246l-0.023,0.246l-0.021,0.246l-0.02,0.246l-0.019,0.246l-0.017,0.247l-0.016,0.247l-0.014,0.248l-0.013,0.248l-0.012,0.249l-0.011,0.249l-0.01,0.25l-0.009,0.25l-0.008,0.251l-0.006,0.252l-0.008,0.257l-0.061,0.434l-0.132,0.418l-0.202,0.39l-0.264,0.35l-0.32,0.3l-0.365,0.242l-0.401,0.177l-0.426,0.107l-0.437,0.034l-0.437,-0.041l-0.424,-0.114l-0.398,-0.183l-0.362,-0.248l-0.315,-0.306l-0.259,-0.355l-0.023,-0.036l-0.17,-0.27l-0.194,-0.309l-0.383,-0.612l-0.379,-0.61l-0.376,-0.607l-0.374,-0.603l-0.373,-0.601l-0.376,-0.599l-0.187,-0.296l-0.159,-0.251l-0.029,-0.047l-0.183,-0.301l-0.184,-0.3l-0.186,-0.299l-0.187,-0.3l-0.189,-0.298l-0.19,-0.299l-0.192,-0.299l-0.194,-0.298l-0.196,-0.298l-0.199,-0.299l-0.201,-0.298l-0.204,-0.299l-0.029,-0.041l-0.163,-0.267l-0.194,-0.311l-0.197,-0.311l-0.2,-0.312l-0.203,-0.313l-0.209,-0.315l-0.091,-0.135l-0.012,-0.021l-0.097,-0.164l-0.099,-0.165l-0.099,-0.165l-0.101,-0.165l-0.101,-0.166l-0.103,-0.166l-0.104,-0.166l-0.105,-0.167l-0.106,-0.168l-0.108,-0.167l-0.109,-0.169l-0.11,-0.168l-0.03,-0.046l-0.075,-0.129l-0.104,-0.177l-0.105,-0.178l-0.107,-0.178l-0.108,-0.18l-0.109,-0.179l-0.111,-0.181l-0.113,-0.181l-0.114,-0.181l-0.115,-0.183l-0.117,-0.183l-0.119,-0.183l-0.12,-0.185l-0.122,-0.185l-0.124,-0.186l-0.125,-0.186l-0.127,-0.187l-0.129,-0.188l-0.131,-0.189l-0.132,-0.19l-0.134,-0.19l-0.136,-0.191l-0.042,-0.058l-0.089,-0.141l-0.129,-0.203l-0.131,-0.205l-0.133,-0.205l-0.136,-0.206l-0.137,-0.207l-0.139,-0.209l-0.141,-0.209l-0.143,-0.21l-0.145,-0.211l-0.148,-0.212l-0.149,-0.213l-0.152,-0.215l-0.154,-0.215l-0.156,-0.216l-0.158,-0.218l-0.16,-0.218l-0.163,-0.22l-0.165,-0.22l-0.167,-0.222l-0.169,-0.223l-0.172,-0.224l-0.175,-0.225l-0.176,-0.226l-0.179,-0.227l0.26,0.127l0.258,0.128l0.255,0.127l0.254,0.128l0.251,0.129l0.25,0.128l0.247,0.129l0.245,0.129l0.243,0.129l0.241,0.13l0.239,0.129l0.237,0.13l0.235,0.131l0.233,0.13l0.231,0.131l0.229,0.131l0.228,0.132l0.225,0.131l0.224,0.132l0.222,0.132l0.22,0.133l0.218,0.133l0.216,0.132l0.215,0.134l0.149,0.093l0.061,0.043l0.201,0.144l0.199,0.145l0.197,0.144l0.196,0.144l0.194,0.145l0.192,0.145l0.191,0.144l0.189,0.145l0.187,0.145l0.186,0.145l0.185,0.145l0.183,0.146l0.181,0.145l0.18,0.145l0.178,0.146l0.177,0.146l0.175,0.145l0.174,0.146l0.172,0.146l0.171,0.146l0.17,0.146l0.123,0.106l0.043,0.042l0.158,0.154l0.157,0.153l0.155,0.154l0.154,0.153l0.152,0.154l0.152,0.153l0.15,0.153l0.149,0.153l0.147,0.154l0.147,0.153l0.145,0.153l0.144,0.153l0.018,0.02l0.118,0.14l0.263,0.317l0.26,0.318l0.255,0.318l0.251,0.316l0.247,0.316l0.21,0.271l0.031,0.046l0.223,0.325l0.22,0.325l0.216,0.323l0.213,0.322l0.209,0.321l0.207,0.321l0.204,0.319l0.185,0.292l0.068,-0.262l0.076,-0.284l0.079,-0.285l0.082,-0.285l0.084,-0.286l0.087,-0.287l0.09,-0.288l0.094,-0.289l0.096,-0.29l0.099,-0.29l0.103,-0.292l0.106,-0.292l0.108,-0.294l0.113,-0.294l0.115,-0.296l0.119,-0.296l0.123,-0.298l0.126,-0.298l0.129,-0.3l0.05,-0.114l0.084,-0.186l0.138,-0.302l0.142,-0.302l0.146,-0.304l0.15,-0.305l0.153,-0.306l0.157,-0.308l0.162,-0.308l0.165,-0.31l0.169,-0.312l0.173,-0.313l0.178,-0.314l0.181,-0.316l0.186,-0.317l0.19,-0.319l0.195,-0.321l0.199,-0.322l0.203,-0.324l0.208,-0.325l0.212,-0.328l0.217,-0.329l0.222,-0.331l0.226,-0.332l0.231,-0.335l0.236,-0.337l0.24,-0.338l0.246,-0.341l0.25,-0.343l0.256,-0.344l0.26,-0.347l0.266,-0.35l0.271,-0.351l0.276,-0.354l0.281,-0.356l0.286,-0.357l0.001,-0.001l0.293,-0.36l0.298,-0.363l0.303,-0.365l0.31,-0.368l0.315,-0.37l0.32,-0.373l0.326,-0.376l0.332,-0.378l0.338,-0.381l0.344,-0.384l0.35,-0.387l0.356,-0.389l0.362,-0.393l0.368,-0.395l0.374,-0.399l0.38,-0.401l0.387,-0.404l0.393,-0.408l0.4,-0.411l0.406,-0.414l0.017,-0.017l0.399,-0.397l0.423,-0.417l0.43,-0.42l0.437,-0.423l0.443,-0.427l0.45,-0.43l0.457,-0.434l0.384,-0.361l0.081,-0.075l0.476,-0.436l0.483,-0.44l0.49,-0.443l0.498,-0.446l0.505,-0.45l0.512,-0.454l0.519,-0.457l0.527,-0.461l0.089,-0.077l0.448,-0.385l0.545,-0.466l0.553,-0.469l0.561,-0.473l0.568,-0.477l0.576,-0.481l0.584,-0.485l0.592,-0.489l0.6,-0.493l0.608,-0.496l0.426,-0.346l0.191,-0.155l-0.167,0.18Z" style="fill:#001118;"/></svg>