<?xml version="1.0" encoding="UTF-8" standalone="no"?><!DOCTYPE svg PUBLIC "-//W3C//DTD SVG 1.1//EN" "http://www.w3.org/Graphics/SVG/1.1/DTD/svg11.dtd"><svg width="100%" height="100%" viewBox="0 0 64 64" version="1.1" xmlns="http://www.w3.org/2000/svg" xmlns:xlink="http://www.w3.org/1999/xlink" xml:space="preserve" xmlns:serif="http://www.serif.com/" style="fill-rule:evenodd;clip-rule:evenodd;stroke-linejoin:round;stroke-miterlimit:1.41421;"><rect id="Play-icon" serif:id="Play icon" x="-0.314" y="0" width="64" height="64" style="fill:none;"/><path d="M56.315,31l-47.258,23.629l0,-47.258l47.258,23.629Z" style="fill:#fff;"/><path d="M43.246,39.008l-17.062,9.115l-16.12,8.521l-0.349,0.159l-0.374,0.099l-0.081,0.007l-0.307,0.024l-0.39,-0.037l-0.381,-0.103l-0.36,-0.167l-0.328,-0.226l-0.288,-0.28l-0.237,-0.327l-0.18,-0.364l-0.116,-0.392l-0.049,-0.408l-0.018,-1.213l-0.084,-9.189l0.005,-7.278l0.074,-7.233l0.287,-14.144l0.215,-8.201l0.051,-0.326l0.104,-0.308l0.153,-0.283l0.197,-0.25l0.233,-0.21l0.22,-0.139l0.042,-0.027l0.281,-0.121l0.295,-0.071l0.299,-0.019l0.294,0.031l0.282,0.08l0.262,0.125l5.366,2.85l24.891,12.915l16.631,8.603l0.127,0.077l0.111,0.098l0.093,0.115l0.073,0.129l0.049,0.14l0.025,0.146l0,0.148l-0.025,0.146l-0.049,0.14l-0.073,0.129l-0.093,0.115l-0.111,0.098l-0.127,0.077l-0.49,0.264l-12.968,6.965Zm-32.021,-23.436l0.287,14.144l0.075,7.233l0.004,7.278l-0.062,6.744l13.009,-6.141l17.529,-8.18l12.213,-5.666l-15.216,-7.348l-25.267,-12.164l-2.713,-1.275l0.141,5.375Z" style="fill:#001118;"/><path d="M56.315,31l-47.258,23.629l0,-47.258l47.258,23.629Z" style="fill:#fff;"/><path d="M43.246,39.008l-17.062,9.115l-16.12,8.521l-0.349,0.159l-0.374,0.099l-0.081,0.007l-0.307,0.024l-0.39,-0.037l-0.381,-0.103l-0.36,-0.167l-0.328,-0.226l-0.288,-0.28l-0.237,-0.327l-0.18,-0.364l-0.116,-0.392l-0.049,-0.408l-0.018,-1.213l-0.084,-9.189l0.005,-7.278l0.074,-7.233l0.287,-14.144l0.215,-8.201l0.051,-0.326l0.104,-0.308l0.153,-0.283l0.197,-0.25l0.233,-0.21l0.22,-0.139l0.042,-0.027l0.281,-0.121l0.295,-0.071l0.299,-0.019l0.294,0.031l0.282,0.08l0.262,0.125l5.366,2.85l24.891,12.915l16.631,8.603l0.127,0.077l0.111,0.098l0.093,0.115l0.073,0.129l0.049,0.14l0.025,0.146l0,0.148l-0.025,0.146l-0.049,0.14l-0.073,0.129l-0.093,0.115l-0.111,0.098l-0.127,0.077l-0.49,0.264l-12.968,6.965Zm-32.021,-23.436l0.287,14.144l0.075,7.233l0.004,7.278l-0.062,6.744l13.009,-6.141l17.529,-8.18l12.213,-5.666l-15.216,-7.348l-25.267,-12.164l-2.713,-1.275l0.141,5.375Z" style="fill:#001118;"/></svg>