<?xml version="1.0" encoding="UTF-8" standalone="no"?><!DOCTYPE svg PUBLIC "-//W3C//DTD SVG 1.1//EN" "http://www.w3.org/Graphics/SVG/1.1/DTD/svg11.dtd"><svg width="100%" height="100%" viewBox="0 0 64 64" version="1.1" xmlns="http://www.w3.org/2000/svg" xmlns:xlink="http://www.w3.org/1999/xlink" xml:space="preserve" xmlns:serif="http://www.serif.com/" style="fill-rule:evenodd;clip-rule:evenodd;stroke-linejoin:round;stroke-miterlimit:1.41421;"><rect id="reset" x="0" y="-0.144" width="64" height="64" style="fill:none;"/><path d="M31.485,6.744l0.153,0.001l0.154,0.002l0.153,0.003l0.154,0.004l0.154,0.005l0.153,0.006l0.154,0.006l0.154,0.008l0.153,0.009l0.154,0.01l0.152,0.01l0.006,0.001l0.141,0.011l0.144,0.011l0.142,0.013l0.143,0.014l0.143,0.014l0.142,0.015l0.142,0.016l0.142,0.018l0.141,0.017l0.142,0.019l0.141,0.02l0.141,0.02l0.083,0.013l0.057,0.009l0.141,0.023l0.14,0.024l0.14,0.024l0.139,0.026l0.14,0.026l0.139,0.027l0.139,0.028l0.138,0.029l0.139,0.03l0.138,0.031l0.137,0.031l0.138,0.032l0.137,0.033l0.137,0.034l0.136,0.035l0.137,0.035l0.136,0.037l0.135,0.037l0.136,0.038l0.135,0.038l0.134,0.04l0.135,0.04l0.134,0.042l0.134,0.042l0.133,0.042l0.133,0.044l0.133,0.044l0.132,0.045l0.132,0.046l0.132,0.047l0.132,0.048l0.131,0.048l0.13,0.049l0.131,0.05l0.13,0.051l0.129,0.051l0.129,0.052l0.129,0.053l0.129,0.054l0.128,0.055l0.128,0.055l0.127,0.056l0.127,0.057l0.126,0.057l0.127,0.059l0.125,0.059l0.126,0.06l0.125,0.06l0.124,0.062l0.124,0.062l0.124,0.062l0.123,0.064l0.123,0.064l0.123,0.065l0.122,0.066l0.121,0.067l0.121,0.067l0.121,0.068l0.12,0.068l0.12,0.07l0.119,0.07l0.119,0.071l0.119,0.071l0.118,0.073l0.117,0.073l0.117,0.073l0.117,0.075l0.116,0.075l0.116,0.076l0.115,0.076l0.115,0.077l0.114,0.078l0.113,0.079l0.114,0.079l0.112,0.08l0.113,0.081l0.111,0.081l0.111,0.082l0.051,0.038l0.06,0.045l0.11,0.083l0.11,0.085l0.109,0.084l0.108,0.086l0.109,0.086l0.107,0.087l0.107,0.087l0.106,0.089l0.106,0.088l0.106,0.09l0.104,0.09l0.105,0.091l0.103,0.091l0.104,0.092l0.102,0.093l0.102,0.094l0.102,0.094l0.1,0.094l0.101,0.096l0.1,0.095l0.099,0.097l0.098,0.097l0.098,0.098l0.098,0.099l0.096,0.099l0.097,0.099l0.095,0.101l0.095,0.101l0.095,0.101l0.094,0.103l0.093,0.102l0.092,0.104l0.092,0.104l0.092,0.104l0.09,0.106l0.09,0.105l0.176,0.21l0.174,0.209l0.17,0.208l0.167,0.207l0.165,0.207l0.162,0.207l0.159,0.206l0.156,0.206l0.153,0.205l0.15,0.205l0.147,0.205l0.145,0.205l0.141,0.204l0.139,0.205l0.135,0.204l0.132,0.205l0.13,0.204l0.126,0.205l0.124,0.205l0.12,0.205l0.117,0.206l0.115,0.205l0.111,0.206l0.108,0.207l0.105,0.207l0.051,0.104l0.051,0.104l0.049,0.104l0.049,0.104l0.048,0.104l0.048,0.105l0.046,0.105l0.046,0.104l0.045,0.105l0.044,0.106l0.044,0.105l0.042,0.106l0.042,0.106l0.041,0.106l0.041,0.106l0.039,0.106l0.039,0.107l0.038,0.107l0.037,0.107l0.036,0.108l0.035,0.107l0.035,0.108l0.034,0.109l0.033,0.108l0.032,0.109l0.031,0.109l0.031,0.11l0.03,0.109l0.029,0.11l0.028,0.111l0.027,0.11l0.027,0.111l0.026,0.112l0.025,0.111l0.024,0.112l0.023,0.113l0.023,0.112l0.021,0.114l0.021,0.113l0.02,0.114l0.019,0.114l0.019,0.115l0.013,0.087l-0.021,-0.086l-0.029,-0.112l-0.029,-0.112l-0.031,-0.111l-0.031,-0.111l-0.032,-0.11l-0.032,-0.11l-0.033,-0.109l-0.034,-0.109l-0.035,-0.108l-0.036,-0.108l-0.036,-0.107l-0.037,-0.107l-0.038,-0.106l-0.038,-0.106l-0.04,-0.105l-0.04,-0.105l-0.04,-0.105l-0.042,-0.104l-0.042,-0.104l-0.043,-0.103l-0.044,-0.103l-0.044,-0.102l-0.045,-0.102l-0.046,-0.102l-0.047,-0.101l-0.047,-0.101l-0.048,-0.101l-0.049,-0.1l-0.05,-0.1l-0.05,-0.1l-0.051,-0.099l-0.052,-0.099l-0.052,-0.098l-0.054,-0.099l-0.054,-0.098l-0.054,-0.098l-0.056,-0.097l-0.056,-0.097l-0.057,-0.097l-0.057,-0.097l-0.059,-0.096l-0.058,-0.096l-0.121,-0.192l-0.123,-0.191l-0.126,-0.19l-0.129,-0.189l-0.132,-0.189l-0.135,-0.188l-0.137,-0.187l-0.141,-0.187l-0.144,-0.187l-0.146,-0.186l-0.149,-0.186l-0.152,-0.186l-0.156,-0.186l-0.158,-0.185l-0.16,-0.185l-0.164,-0.186l-0.167,-0.185l-0.17,-0.186l-0.172,-0.186l-0.176,-0.186l-0.178,-0.187l-0.181,-0.186l-0.184,-0.188l-0.188,-0.187l-0.19,-0.189l-0.094,-0.092l-0.096,-0.092l-0.096,-0.092l-0.096,-0.091l-0.097,-0.09l-0.097,-0.089l-0.098,-0.089l-0.098,-0.088l-0.099,-0.087l-0.099,-0.087l-0.099,-0.085l-0.1,-0.086l-0.101,-0.084l-0.101,-0.084l-0.101,-0.083l-0.102,-0.083l-0.102,-0.082l-0.103,-0.081l-0.103,-0.08l-0.103,-0.08l-0.104,-0.079l-0.105,-0.078l-0.104,-0.078l-0.106,-0.076l-0.105,-0.077l-0.106,-0.075l-0.107,-0.075l-0.106,-0.074l-0.107,-0.073l-0.108,-0.073l-0.108,-0.072l-0.108,-0.071l-0.109,-0.071l-0.109,-0.07l-0.109,-0.069l-0.11,-0.068l-0.06,-0.037l-0.05,-0.031l-0.11,-0.067l-0.111,-0.066l-0.111,-0.066l-0.112,-0.065l-0.112,-0.064l-0.112,-0.063l-0.112,-0.063l-0.113,-0.062l-0.113,-0.062l-0.114,-0.06l-0.113,-0.06l-0.115,-0.059l-0.114,-0.059l-0.115,-0.057l-0.115,-0.057l-0.115,-0.056l-0.116,-0.056l-0.116,-0.055l-0.116,-0.054l-0.116,-0.053l-0.117,-0.053l-0.117,-0.051l-0.118,-0.052l-0.117,-0.05l-0.118,-0.05l-0.118,-0.048l-0.119,-0.049l-0.118,-0.047l-0.119,-0.047l-0.119,-0.046l-0.12,-0.045l-0.12,-0.044l-0.119,-0.044l-0.121,-0.043l-0.12,-0.042l-0.121,-0.042l-0.12,-0.04l-0.122,-0.04l-0.121,-0.039l-0.121,-0.039l-0.122,-0.038l-0.122,-0.037l-0.122,-0.036l-0.122,-0.035l-0.123,-0.035l-0.123,-0.034l-0.123,-0.033l-0.123,-0.032l-0.123,-0.032l-0.123,-0.031l-0.124,-0.03l-0.124,-0.029l-0.124,-0.029l-0.124,-0.028l-0.124,-0.027l-0.125,-0.026l-0.125,-0.026l-0.124,-0.024l-0.125,-0.024l-0.125,-0.024l-0.126,-0.022l-0.125,-0.022l-0.125,-0.021l-0.126,-0.02l-0.126,-0.019l-0.126,-0.019l-0.126,-0.017l-0.126,-0.017l-0.126,-0.017l-0.127,-0.015l-0.126,-0.015l-0.127,-0.014l-0.126,-0.013l-0.127,-0.012l-0.127,-0.012l-0.127,-0.01l-0.127,-0.01l-0.127,-0.01l-0.052,-0.003l-0.075,-0.005l-0.127,-0.009l-0.128,-0.007l-0.127,-0.007l-0.127,-0.006l-0.128,-0.005l-0.127,-0.005l-0.128,-0.003l-0.128,-0.003l-0.128,-0.002l-0.127,-0.001l-0.128,-0.001l-0.132,0.001l0.004,0l-0.003,0l0.004,0l-0.142,0.001l-0.138,0.002l-0.137,0.003l-0.138,0.004l-0.137,0.005l-0.137,0.005l-0.137,0.007l-0.137,0.007l-0.137,0.008l-0.136,0.009l-0.137,0.01l-0.136,0.011l-0.136,0.012l-0.136,0.012l-0.135,0.014l-0.136,0.014l-0.135,0.015l-0.135,0.016l-0.135,0.016l-0.135,0.018l-0.134,0.018l-0.134,0.019l-0.134,0.02l-0.134,0.021l-0.134,0.022l-0.133,0.023l-0.133,0.023l-0.133,0.024l-0.133,0.025l-0.132,0.026l-0.133,0.026l-0.132,0.028l-0.131,0.028l-0.132,0.029l-0.131,0.03l-0.131,0.031l-0.131,0.031l-0.13,0.032l-0.13,0.034l-0.13,0.033l-0.129,0.035l-0.13,0.036l-0.129,0.036l-0.129,0.037l-0.128,0.038l-0.128,0.038l-0.128,0.04l-0.128,0.04l-0.127,0.041l-0.05,0.016l-0.077,0.025l-0.127,0.041l-0.127,0.042l-0.126,0.043l-0.126,0.044l-0.126,0.044l-0.125,0.046l-0.125,0.045l-0.125,0.047l-0.124,0.048l-0.125,0.048l-0.123,0.049l-0.124,0.05l-0.123,0.05l-0.123,0.052l-0.122,0.052l-0.122,0.053l-0.122,0.053l-0.121,0.054l-0.121,0.055l-0.121,0.056l-0.12,0.057l-0.12,0.057l-0.12,0.058l-0.119,0.059l-0.118,0.059l-0.119,0.061l-0.118,0.061l-0.117,0.061l-0.118,0.063l-0.116,0.063l-0.117,0.064l-0.116,0.064l-0.115,0.066l-0.115,0.066l-0.115,0.066l-0.114,0.068l-0.114,0.068l-0.114,0.069l-0.113,0.07l-0.112,0.07l-0.113,0.071l-0.111,0.072l-0.111,0.072l-0.111,0.073l-0.111,0.074l-0.11,0.075l-0.109,0.075l-0.109,0.076l-0.108,0.076l-0.109,0.078l-0.107,0.078l-0.107,0.078l-0.107,0.08l-0.106,0.08l-0.106,0.08l-0.105,0.082l-0.104,0.082l-0.105,0.083l-0.103,0.083l-0.103,0.084l-0.103,0.085l-0.102,0.085l-0.102,0.086l-0.101,0.087l-0.1,0.087l-0.101,0.089l-0.099,0.088l-0.099,0.09l-0.099,0.09l-0.097,0.09l-0.098,0.092l-0.097,0.092l-0.096,0.092l-0.096,0.094l-0.095,0.094l-0.095,0.094l-0.094,0.096l-0.093,0.095l-0.093,0.097l-0.092,0.097l-0.092,0.097l-0.091,0.098l-0.09,0.099l-0.089,0.099l-0.089,0.099l-0.088,0.1l-0.087,0.1l-0.087,0.101l-0.085,0.101l-0.086,0.102l-0.084,0.102l-0.084,0.103l-0.083,0.103l-0.082,0.104l-0.082,0.104l-0.081,0.104l-0.08,0.105l-0.079,0.105l-0.079,0.106l-0.078,0.106l-0.077,0.107l-0.077,0.107l-0.076,0.108l-0.075,0.107l-0.075,0.109l-0.073,0.108l-0.073,0.109l-0.073,0.11l-0.071,0.11l-0.071,0.11l-0.07,0.111l-0.069,0.111l-0.069,0.111l-0.068,0.112l-0.067,0.112l-0.066,0.113l-0.066,0.113l-0.065,0.113l-0.064,0.113l-0.064,0.114l-0.062,0.115l-0.062,0.114l-0.062,0.115l-0.06,0.116l-0.06,0.115l-0.059,0.116l-0.058,0.116l-0.058,0.117l-0.056,0.117l-0.056,0.117l-0.056,0.118l-0.015,0.034l-0.04,0.083l-0.055,0.118l-0.054,0.118l-0.053,0.118l-0.053,0.119l-0.051,0.119l-0.051,0.119l-0.051,0.12l-0.049,0.119l-0.049,0.12l-0.048,0.121l-0.047,0.12l-0.046,0.121l-0.046,0.122l-0.045,0.121l-0.044,0.122l-0.044,0.122l-0.042,0.122l-0.042,0.122l-0.041,0.123l-0.041,0.123l-0.039,0.123l-0.039,0.124l-0.038,0.123l-0.037,0.124l-0.037,0.124l-0.036,0.125l-0.034,0.124l-0.035,0.125l-0.033,0.125l-0.033,0.125l-0.031,0.126l-0.031,0.125l-0.031,0.126l-0.029,0.126l-0.029,0.126l-0.028,0.127l-0.027,0.126l-0.026,0.127l-0.025,0.127l-0.025,0.127l-0.024,0.127l-0.023,0.128l-0.023,0.127l-0.021,0.128l-0.021,0.128l-0.02,0.128l-0.019,0.128l-0.018,0.129l-0.018,0.128l-0.016,0.129l-0.016,0.128l-0.015,0.129l-0.015,0.129l-0.013,0.129l-0.013,0.13l-0.012,0.129l-0.011,0.129l-0.01,0.13l-0.009,0.13l-0.009,0.129l-0.008,0.13l-0.007,0.13l-0.006,0.13l-0.005,0.13l-0.005,0.13l-0.003,0.131l-0.003,0.13l-0.002,0.131l-0.002,0.13l0,0.131l0,0.13l0.002,0.131l0.002,0.131l0.003,0.134l0.007,0.319l0.045,3.388l0.002,0.119l0.003,0.114l0.004,0.115l0.004,0.114l0.005,0.115l0.005,0.114l0.007,0.113l0.006,0.114l0.008,0.113l0.008,0.113l0.009,0.113l0.01,0.113l0.01,0.113l0.011,0.112l0.012,0.112l0.012,0.112l0.013,0.112l0.014,0.111l0.014,0.111l0.015,0.111l0.016,0.111l0.016,0.11l0.017,0.111l0.017,0.11l0.019,0.11l0.018,0.109l0.02,0.11l0.02,0.109l0.021,0.108l0.021,0.109l0.022,0.109l0.023,0.108l0.023,0.108l0.024,0.107l0.025,0.108l0.025,0.107l0.026,0.107l0.026,0.106l0.027,0.107l0.027,0.102l0.058,0.215l0.06,0.211l0.062,0.209l0.064,0.208l0.067,0.207l0.069,0.206l0.071,0.205l0.074,0.204l0.076,0.203l0.079,0.201l0.08,0.2l0.001,0.001l0.081,0.199l0.083,0.199l0.085,0.198l0.088,0.196l0.09,0.195l0.092,0.194l0.095,0.193l0.096,0.191l0.099,0.19l0.101,0.189l0.103,0.188l0.105,0.186l0.108,0.185l0.109,0.183l0.111,0.182l0.114,0.181l0.115,0.179l0.118,0.178l0.119,0.176l0.122,0.175l0.124,0.174l0.125,0.172l0.127,0.17l0.13,0.169l0.131,0.168l0.133,0.165l0.135,0.165l0.137,0.162l0.139,0.161l0.141,0.16l0.142,0.157l0.144,0.156l0.146,0.155l0.148,0.152l0.149,0.151l0.152,0.15l0.152,0.147l0.155,0.146l0.156,0.144l0.158,0.142l0.16,0.14l0.161,0.138l0.163,0.137l0.164,0.135l0.166,0.132l0.168,0.131l0.169,0.129l0.171,0.127l0.172,0.126l0.174,0.123l0.175,0.121l0.176,0.119l0.178,0.117l0.18,0.115l0.181,0.113l0.182,0.111l0.184,0.109l0.185,0.107l0.186,0.104l0.188,0.103l0.189,0.1l0.19,0.099l0.192,0.096l0.018,0.009l0.174,0.085l0.194,0.093l0.195,0.09l0.196,0.089l0.198,0.086l0.198,0.083l0.2,0.082l0.201,0.079l0.202,0.076l0.204,0.075l0.204,0.072l0.206,0.07l0.207,0.067l0.211,0.066l0.101,0.031l0.105,0.031l0.104,0.03l0.106,0.03l0.105,0.029l0.106,0.029l0.106,0.028l0.106,0.027l0.106,0.027l0.107,0.026l0.107,0.025l0.107,0.025l0.108,0.024l0.107,0.024l0.108,0.023l0.109,0.022l0.108,0.022l0.109,0.021l0.109,0.021l0.109,0.019l0.11,0.02l0.109,0.018l0.11,0.018l0.11,0.017l0.111,0.017l0.111,0.016l0.11,0.015l0.112,0.014l0.111,0.014l0.111,0.014l0.112,0.012l0.112,0.012l0.112,0.011l0.113,0.011l0.113,0.01l0.113,0.009l0.113,0.009l0.113,0.008l0.114,0.007l0.115,0.006l0.132,0.007l0.132,0.006l0.131,0.005l0.132,0.005l0.131,0.003l0.131,0.003l0.131,0.001l0.132,0.001l0.131,0.001l0.131,-0.001l0.131,-0.002l0.13,-0.002l0.131,-0.003l0.131,-0.004l0.13,-0.005l0.131,-0.005l0.13,-0.006l0.131,-0.008l0.13,-0.008l0.13,-0.008l0.13,-0.01l0.13,-0.01l0.129,-0.011l0.13,-0.012l0.129,-0.013l0.13,-0.014l0.129,-0.014l0.129,-0.015l0.129,-0.016l0.129,-0.017l0.128,-0.017l0.129,-0.019l0.128,-0.019l0.128,-0.02l0.128,-0.02l0.128,-0.022l0.128,-0.022l0.128,-0.023l0.127,-0.024l0.127,-0.024l0.127,-0.026l0.127,-0.026l0.127,-0.027l0.126,-0.027l0.126,-0.029l0.126,-0.029l0.126,-0.03l0.126,-0.031l0.125,-0.031l0.125,-0.033l0.125,-0.033l0.125,-0.034l0.125,-0.034l0.124,-0.035l0.124,-0.037l0.124,-0.036l0.124,-0.038l0.123,-0.038l0.123,-0.04l0.123,-0.039l0.123,-0.041l0.122,-0.042l0.122,-0.042l0.12,-0.042l0.002,-0.001l0.122,-0.043l0.121,-0.043l0.122,-0.045l0.121,-0.045l0.12,-0.046l0.121,-0.047l0.12,-0.048l0.12,-0.048l0.119,-0.049l0.12,-0.05l0.119,-0.05l0.118,-0.052l0.119,-0.052l0.118,-0.052l0.118,-0.054l0.117,-0.054l0.117,-0.055l0.117,-0.056l0.117,-0.056l0.116,-0.057l0.116,-0.058l0.115,-0.059l0.116,-0.059l0.115,-0.06l0.114,-0.061l0.114,-0.061l0.114,-0.062l0.114,-0.063l0.113,-0.064l0.112,-0.064l0.113,-0.065l0.112,-0.066l0.111,-0.066l0.112,-0.067l0.111,-0.068l0.11,-0.069l0.11,-0.069l0.11,-0.07l0.109,-0.071l0.109,-0.071l0.109,-0.072l0.108,-0.073l0.107,-0.074l0.108,-0.074l0.107,-0.075l0.106,-0.075l0.106,-0.077l0.106,-0.077l0.105,-0.077l0.105,-0.079l0.104,-0.079l0.104,-0.08l0.104,-0.08l0.103,-0.081l0.102,-0.082l0.102,-0.083l0.102,-0.083l0.101,-0.084l0.101,-0.084l0.05,-0.043l0.05,-0.042l0.1,-0.086l0.1,-0.086l0.099,-0.087l0.099,-0.087l0.098,-0.088l0.098,-0.089l0.097,-0.089l0.096,-0.09l0.096,-0.09l0.095,-0.091l0.095,-0.092l0.094,-0.092l0.093,-0.092l0.093,-0.093l0.092,-0.094l0.091,-0.094l0.091,-0.095l0.09,-0.095l0.09,-0.096l0.089,-0.096l0.088,-0.096l0.088,-0.098l0.087,-0.097l0.086,-0.099l0.086,-0.098l0.085,-0.099l0.084,-0.1l0.084,-0.1l0.083,-0.101l0.083,-0.101l0.081,-0.102l0.081,-0.102l0.081,-0.103l0.08,-0.103l0.079,-0.103l0.079,-0.104l0.077,-0.104l0.078,-0.105l0.076,-0.106l0.076,-0.105l0.075,-0.107l0.075,-0.106l0.074,-0.108l0.073,-0.107l0.072,-0.108l0.072,-0.108l0.071,-0.109l0.071,-0.11l0.07,-0.109l0.069,-0.11l0.068,-0.111l0.068,-0.111l0.067,-0.111l0.023,-0.04l0.044,-0.071l0.066,-0.112l0.066,-0.112l0.065,-0.113l0.065,-0.112l0.064,-0.114l0.063,-0.113l0.062,-0.114l0.062,-0.115l0.061,-0.115l0.06,-0.115l0.059,-0.115l0.059,-0.116l0.058,-0.117l0.058,-0.116l0.056,-0.117l0.056,-0.118l0.056,-0.117l0.054,-0.118l0.054,-0.119l0.053,-0.119l0.053,-0.119l0.051,-0.119l0.051,-0.12l0.051,-0.12l0.049,-0.121l0.049,-0.12l0.048,-0.122l0.047,-0.121l0.047,-0.122l0.045,-0.122l0.045,-0.122l0.045,-0.123l0.043,-0.123l0.043,-0.123l0.042,-0.124l0.042,-0.124l0.04,-0.124l0.04,-0.124l0.039,-0.125l0.038,-0.125l0.038,-0.125l0.037,-0.126l0.036,-0.126l0.035,-0.126l0.03,-0.109l0.005,-0.017l0.036,-0.126l0.034,-0.127l0.034,-0.126l0.034,-0.127l0.032,-0.128l0.032,-0.127l0.031,-0.128l0.03,-0.128l0.03,-0.128l0.028,-0.129l0.028,-0.129l0.027,-0.129l0.027,-0.129l0.025,-0.129l0.025,-0.13l0.024,-0.13l0.023,-0.13l0.023,-0.131l0.021,-0.131l0.021,-0.13l0.02,-0.132l0.019,-0.131l0.018,-0.132l0.018,-0.131l0.017,-0.132l0.016,-0.132l0.015,-0.133l0.014,-0.132l0.013,-0.133l0.013,-0.133l0.012,-0.133l0.011,-0.134l0.01,-0.14l0.001,-0.01l0.762,-1.555l1.588,-0.594l0.02,0.001l1.531,0.734l0.617,1.616l-0.002,0.165l-0.005,0.163l-0.005,0.162l-0.006,0.161l-0.007,0.162l-0.008,0.162l-0.009,0.161l-0.01,0.162l-0.011,0.161l-0.012,0.161l-0.014,0.161l-0.014,0.161l-0.015,0.161l-0.016,0.16l-0.017,0.161l-0.018,0.16l-0.019,0.16l-0.02,0.16l-0.021,0.16l-0.023,0.159l-0.023,0.16l-0.024,0.159l-0.025,0.159l-0.026,0.159l-0.027,0.158l-0.028,0.159l-0.028,0.158l-0.03,0.158l-0.031,0.158l-0.032,0.157l-0.033,0.158l-0.034,0.157l-0.034,0.157l-0.005,0.021l-0.033,0.135l-0.038,0.156l-0.04,0.156l-0.04,0.155l-0.041,0.155l-0.043,0.155l-0.043,0.154l-0.044,0.154l-0.046,0.154l-0.046,0.154l-0.047,0.153l-0.048,0.153l-0.049,0.153l-0.049,0.152l-0.051,0.153l-0.052,0.151l-0.053,0.152l-0.053,0.151l-0.055,0.15l-0.055,0.151l-0.057,0.15l-0.057,0.15l-0.058,0.149l-0.059,0.149l-0.06,0.149l-0.061,0.148l-0.062,0.148l-0.063,0.147l-0.063,0.147l-0.065,0.147l-0.066,0.146l-0.066,0.146l-0.067,0.146l-0.068,0.145l-0.07,0.145l-0.07,0.144l-0.07,0.144l-0.072,0.144l-0.073,0.143l-0.073,0.142l-0.075,0.143l-0.075,0.141l-0.077,0.142l-0.077,0.141l-0.078,0.14l-0.051,0.091l-0.028,0.049l-0.08,0.139l-0.082,0.139l-0.082,0.138l-0.083,0.137l-0.084,0.137l-0.085,0.137l-0.086,0.136l-0.087,0.136l-0.087,0.135l-0.089,0.135l-0.089,0.134l-0.09,0.134l-0.091,0.133l-0.091,0.132l-0.093,0.132l-0.093,0.132l-0.095,0.131l-0.095,0.13l-0.096,0.13l-0.097,0.13l-0.097,0.128l-0.099,0.129l-0.099,0.127l-0.1,0.127l-0.101,0.127l-0.102,0.126l-0.102,0.125l-0.104,0.125l-0.104,0.124l-0.105,0.124l-0.106,0.123l-0.107,0.122l-0.107,0.122l-0.108,0.122l-0.11,0.12l-0.11,0.12l-0.11,0.119l-0.112,0.119l-0.112,0.118l-0.113,0.118l-0.114,0.117l-0.115,0.116l-0.115,0.115l-0.117,0.115l-0.117,0.115l-0.118,0.113l-0.118,0.113l-0.12,0.112l-0.12,0.112l-0.121,0.111l-0.121,0.11l-0.122,0.109l-0.123,0.108l-0.062,0.054l-0.062,0.053l-0.124,0.107l-0.125,0.105l-0.126,0.104l-0.126,0.104l-0.127,0.103l-0.127,0.102l-0.128,0.101l-0.128,0.101l-0.129,0.099l-0.13,0.099l-0.13,0.097l-0.13,0.097l-0.132,0.096l-0.131,0.096l-0.133,0.094l-0.132,0.094l-0.134,0.092l-0.134,0.092l-0.134,0.091l-0.135,0.09l-0.135,0.089l-0.136,0.088l-0.136,0.088l-0.137,0.086l-0.138,0.086l-0.138,0.085l-0.138,0.084l-0.139,0.083l-0.139,0.082l-0.14,0.081l-0.14,0.081l-0.141,0.079l-0.141,0.079l-0.141,0.078l-0.143,0.077l-0.142,0.076l-0.143,0.075l-0.143,0.074l-0.144,0.073l-0.144,0.073l-0.145,0.071l-0.145,0.071l-0.145,0.069l-0.146,0.069l-0.147,0.068l-0.146,0.067l-0.147,0.066l-0.148,0.065l-0.148,0.064l-0.148,0.064l-0.149,0.062l-0.148,0.062l-0.15,0.06l-0.15,0.06l-0.15,0.058l-0.15,0.058l-0.151,0.057l-0.151,0.056l-0.151,0.055l-0.003,0.001l-0.149,0.053l-0.153,0.052l-0.152,0.052l-0.153,0.051l-0.154,0.049l-0.153,0.049l-0.154,0.048l-0.154,0.047l-0.155,0.046l-0.155,0.045l-0.155,0.044l-0.155,0.043l-0.156,0.043l-0.156,0.041l-0.156,0.04l-0.156,0.039l-0.157,0.039l-0.157,0.037l-0.157,0.037l-0.158,0.035l-0.158,0.035l-0.158,0.033l-0.158,0.033l-0.158,0.031l-0.159,0.031l-0.159,0.03l-0.159,0.029l-0.159,0.027l-0.16,0.027l-0.159,0.026l-0.16,0.025l-0.16,0.023l-0.161,0.023l-0.16,0.022l-0.161,0.021l-0.161,0.02l-0.161,0.019l-0.161,0.018l-0.161,0.017l-0.162,0.016l-0.162,0.014l-0.162,0.014l-0.162,0.013l-0.162,0.012l-0.162,0.011l-0.162,0.01l-0.163,0.009l-0.163,0.008l-0.162,0.007l-0.163,0.006l-0.163,0.005l-0.163,0.004l-0.164,0.002l-0.163,0.002l-0.163,0.001l-0.164,0l-0.163,-0.001l-0.164,-0.003l-0.164,-0.003l-0.164,-0.004l-0.164,-0.005l-0.163,-0.007l-0.164,-0.007l-0.16,-0.008l-0.011,-0.001l-0.141,-0.008l-0.146,-0.009l-0.145,-0.01l-0.145,-0.011l-0.144,-0.012l-0.144,-0.013l-0.144,-0.013l-0.144,-0.015l-0.144,-0.015l-0.143,-0.016l-0.143,-0.017l-0.143,-0.018l-0.143,-0.019l-0.142,-0.019l-0.142,-0.021l-0.142,-0.021l-0.141,-0.022l-0.141,-0.023l-0.141,-0.024l-0.141,-0.025l-0.14,-0.025l-0.14,-0.026l-0.14,-0.027l-0.139,-0.028l-0.139,-0.029l-0.139,-0.029l-0.139,-0.031l-0.138,-0.031l-0.138,-0.032l-0.137,-0.033l-0.138,-0.033l-0.137,-0.034l-0.136,-0.036l-0.137,-0.036l-0.136,-0.036l-0.135,-0.038l-0.135,-0.038l-0.135,-0.039l-0.135,-0.04l-0.138,-0.042l-0.264,-0.082l-0.266,-0.087l-0.265,-0.09l-0.263,-0.093l-0.262,-0.096l-0.26,-0.098l-0.259,-0.102l-0.257,-0.105l-0.255,-0.108l-0.254,-0.11l-0.253,-0.114l-0.251,-0.116l-0.249,-0.119l-0.224,-0.11l-0.023,-0.012l-0.246,-0.126l-0.243,-0.128l-0.242,-0.131l-0.24,-0.134l-0.239,-0.137l-0.236,-0.139l-0.235,-0.142l-0.232,-0.145l-0.231,-0.147l-0.229,-0.15l-0.228,-0.152l-0.225,-0.155l-0.223,-0.157l-0.221,-0.16l-0.22,-0.162l-0.217,-0.165l-0.215,-0.168l-0.214,-0.169l-0.211,-0.172l-0.209,-0.175l-0.207,-0.176l-0.205,-0.179l-0.202,-0.182l-0.201,-0.183l-0.198,-0.186l-0.197,-0.189l-0.194,-0.19l-0.191,-0.193l-0.19,-0.194l-0.187,-0.197l-0.185,-0.199l-0.183,-0.202l-0.18,-0.203l-0.178,-0.205l-0.175,-0.208l-0.174,-0.209l-0.17,-0.212l-0.169,-0.213l-0.166,-0.215l-0.163,-0.218l-0.161,-0.219l-0.158,-0.221l-0.156,-0.223l-0.154,-0.225l-0.151,-0.227l-0.148,-0.229l-0.145,-0.23l-0.143,-0.233l-0.141,-0.234l-0.137,-0.235l-0.135,-0.238l-0.133,-0.239l-0.129,-0.241l-0.127,-0.242l-0.124,-0.244l-0.122,-0.246l-0.118,-0.247l-0.116,-0.249l-0.113,-0.251l-0.109,-0.252l-0.108,-0.253l-0.104,-0.255l-0.101,-0.257l0,-0.001l-0.096,-0.257l-0.093,-0.26l-0.091,-0.262l-0.087,-0.262l-0.084,-0.264l-0.081,-0.266l-0.078,-0.266l-0.075,-0.268l-0.072,-0.269l-0.069,-0.27l-0.064,-0.268l-0.033,-0.139l-0.03,-0.137l-0.03,-0.136l-0.029,-0.137l-0.029,-0.137l-0.027,-0.138l-0.027,-0.137l-0.026,-0.138l-0.025,-0.139l-0.024,-0.138l-0.024,-0.139l-0.022,-0.139l-0.022,-0.139l-0.021,-0.14l-0.02,-0.139l-0.02,-0.14l-0.018,-0.141l-0.018,-0.14l-0.017,-0.141l-0.016,-0.14l-0.015,-0.142l-0.014,-0.141l-0.014,-0.141l-0.012,-0.142l-0.012,-0.142l-0.011,-0.142l-0.01,-0.143l-0.009,-0.142l-0.009,-0.143l-0.007,-0.143l-0.007,-0.143l-0.005,-0.143l-0.005,-0.144l-0.004,-0.144l-0.003,-0.144l-0.002,-0.144l-0.002,-0.144l0,-0.144l0,-0.145l0.001,-0.141l0.046,-3.401l0.007,-0.32l0.004,-0.157l0.005,-0.161l0.006,-0.161l0.006,-0.16l0.008,-0.161l0.009,-0.16l0.01,-0.16l0.011,-0.16l0.012,-0.159l0.013,-0.16l0.014,-0.159l0.015,-0.159l0.016,-0.159l0.017,-0.158l0.018,-0.159l0.019,-0.158l0.02,-0.158l0.02,-0.158l0.022,-0.157l0.023,-0.158l0.024,-0.157l0.025,-0.157l0.026,-0.156l0.026,-0.157l0.028,-0.156l0.029,-0.155l0.029,-0.156l0.031,-0.155l0.031,-0.155l0.033,-0.155l0.033,-0.155l0.035,-0.154l0.035,-0.154l0.036,-0.153l0.038,-0.154l0.038,-0.153l0.039,-0.153l0.04,-0.152l0.041,-0.152l0.042,-0.152l0.043,-0.151l0.044,-0.152l0.045,-0.15l0.045,-0.151l0.047,-0.15l0.047,-0.15l0.049,-0.149l0.049,-0.15l0.051,-0.148l0.051,-0.149l0.052,-0.148l0.053,-0.147l0.054,-0.148l0.055,-0.147l0.055,-0.146l0.057,-0.147l0.058,-0.145l0.058,-0.146l0.059,-0.145l0.061,-0.144l0.061,-0.145l0.062,-0.143l0.063,-0.144l0.063,-0.143l0.065,-0.142l0.065,-0.143l0.067,-0.141l0.067,-0.142l0.068,-0.14l0.069,-0.141l0.07,-0.14l0.071,-0.139l0.072,-0.139l0.072,-0.139l0.052,-0.098l0.022,-0.04l0.075,-0.137l0.076,-0.137l0.077,-0.136l0.078,-0.136l0.078,-0.135l0.08,-0.135l0.08,-0.134l0.081,-0.134l0.082,-0.133l0.083,-0.133l0.083,-0.132l0.085,-0.132l0.085,-0.131l0.086,-0.13l0.087,-0.13l0.088,-0.13l0.088,-0.129l0.089,-0.128l0.091,-0.128l0.091,-0.128l0.091,-0.127l0.093,-0.126l0.093,-0.125l0.095,-0.126l0.094,-0.124l0.096,-0.124l0.097,-0.123l0.097,-0.123l0.098,-0.122l0.099,-0.122l0.1,-0.121l0.101,-0.12l0.101,-0.12l0.102,-0.119l0.103,-0.119l0.103,-0.118l0.105,-0.117l0.105,-0.117l0.106,-0.116l0.106,-0.115l0.108,-0.115l0.108,-0.114l0.109,-0.114l0.11,-0.113l0.11,-0.112l0.112,-0.111l0.111,-0.111l0.113,-0.11l0.114,-0.11l0.114,-0.109l0.115,-0.108l0.115,-0.107l0.117,-0.107l0.117,-0.106l0.118,-0.105l0.118,-0.105l0.119,-0.103l0.119,-0.103l0.12,-0.102l0.12,-0.101l0.121,-0.1l0.122,-0.099l0.122,-0.099l0.123,-0.098l0.123,-0.096l0.123,-0.096l0.124,-0.095l0.125,-0.095l0.125,-0.093l0.126,-0.093l0.126,-0.091l0.127,-0.091l0.127,-0.09l0.128,-0.089l0.128,-0.089l0.129,-0.087l0.129,-0.087l0.129,-0.085l0.13,-0.085l0.131,-0.084l0.131,-0.083l0.131,-0.083l0.132,-0.081l0.132,-0.08l0.133,-0.08l0.133,-0.079l0.134,-0.078l0.134,-0.077l0.134,-0.076l0.135,-0.075l0.136,-0.074l0.135,-0.074l0.136,-0.073l0.137,-0.071l0.137,-0.071l0.137,-0.07l0.137,-0.069l0.138,-0.068l0.139,-0.068l0.139,-0.066l0.139,-0.066l0.139,-0.064l0.14,-0.064l0.14,-0.063l0.141,-0.062l0.141,-0.061l0.141,-0.06l0.141,-0.059l0.142,-0.059l0.142,-0.057l0.143,-0.057l0.143,-0.055l0.143,-0.055l0.143,-0.054l0.144,-0.053l0.144,-0.052l0.145,-0.051l0.144,-0.05l0.145,-0.05l0.145,-0.048l0.146,-0.047l0.146,-0.047l0.146,-0.046l0.146,-0.044l0.147,-0.044l0.146,-0.043l0.147,-0.042l0.148,-0.041l0.147,-0.04l0.148,-0.039l0.148,-0.039l0.09,-0.022l0.059,-0.014l0.148,-0.036l0.149,-0.034l0.15,-0.033l0.149,-0.033l0.15,-0.031l0.149,-0.031l0.15,-0.029l0.15,-0.029l0.151,-0.028l0.15,-0.027l0.151,-0.025l0.151,-0.025l0.151,-0.024l0.151,-0.023l0.151,-0.022l0.151,-0.021l0.152,-0.021l0.152,-0.019l0.151,-0.018l0.152,-0.017l0.152,-0.017l0.153,-0.015l0.152,-0.015l0.152,-0.013l0.153,-0.013l0.152,-0.011l0.153,-0.011l0.153,-0.009l0.153,-0.009l0.153,-0.008l0.153,-0.007l0.153,-0.005l0.153,-0.005l0.153,-0.004l0.154,-0.003l0.153,-0.002l0.153,-0.001l0.154,0Z" style="fill:#001118;"/><path d="M56.473,33.105l-0.001,0.365l-0.005,0.721l-0.006,0.719l-0.006,0.691l-0.001,0.023l-0.013,0.71l-0.012,0.708l-0.01,0.708l-0.004,0.352l-0.003,0.353l-0.001,0.353l-0.001,0.352l0.001,0.354l0.002,0.353l0.001,0.193l-0.001,0.161l0,0.355l0.001,0.356l0.003,0.356l0.005,0.358l0.007,0.358l0.009,0.36l0.011,0.362l0.014,0.363l0.016,0.365l0.018,0.367l0.006,0.102l0.008,0.268l0.014,0.371l0.016,0.377l0.009,0.186l0.01,0.188l0.011,0.19l0.012,0.19l0.012,0.191l0.013,0.192l0.014,0.192l0.015,0.193l0.016,0.195l0.016,0.194l0.016,0.18l0,0.016l0.003,0.199l0.004,0.199l0.005,0.2l0.006,0.201l0.007,0.202l0.007,0.204l0.009,0.205l0.009,0.205l0.003,0.053l-0.005,0.156l-0.006,0.21l-0.005,0.212l-0.004,0.213l-0.003,0.215l-0.002,0.216l-0.001,0.217l0,0.219l0,0.116l-0.008,0.106l-0.015,0.225l-0.015,0.227l-0.014,0.228l-0.012,0.23l-0.012,0.232l-0.011,0.234l-0.01,0.235l-0.009,0.238l-0.007,0.239l-0.007,0.241l-0.006,0.243l-0.004,0.245l-0.004,0.247l-0.002,0.249l-0.001,0.128l-0.011,0.125l-0.021,0.257l-0.02,0.26l-0.018,0.262l-0.018,0.265l-0.017,0.267l-0.016,0.269l-0.014,0.271l-0.014,0.274l-0.012,0.276l-0.011,0.278l-0.01,0.281l-0.009,0.283l-0.008,0.286l-0.006,0.288l-0.006,0.29l-0.004,0.293l-0.002,0.296l-0.168,-0.244l-0.165,-0.244l-0.163,-0.242l-0.16,-0.242l-0.159,-0.241l-0.157,-0.241l-0.155,-0.239l-0.153,-0.239l-0.151,-0.238l-0.149,-0.238l-0.147,-0.237l-0.146,-0.236l-0.143,-0.235l-0.142,-0.235l-0.139,-0.234l-0.138,-0.234l-0.136,-0.233l-0.065,-0.113l-0.058,-0.122l-0.112,-0.236l-0.11,-0.235l-0.109,-0.235l-0.106,-0.234l-0.105,-0.233l-0.104,-0.233l-0.102,-0.231l-0.1,-0.231l-0.099,-0.23l-0.097,-0.23l-0.096,-0.229l-0.094,-0.228l-0.093,-0.227l-0.091,-0.227l-0.042,-0.106l-0.038,-0.121l-0.071,-0.228l-0.07,-0.227l-0.068,-0.226l-0.067,-0.225l-0.066,-0.225l-0.064,-0.224l-0.064,-0.223l-0.046,-0.165l-0.011,-0.058l-0.044,-0.223l-0.042,-0.223l-0.042,-0.221l-0.04,-0.221l-0.039,-0.22l-0.038,-0.219l-0.037,-0.218l-0.036,-0.217l-0.003,-0.018l-0.018,-0.199l-0.019,-0.217l-0.018,-0.216l-0.017,-0.215l-0.016,-0.213l-0.015,-0.213l-0.014,-0.212l-0.013,-0.211l-0.013,-0.21l-0.011,-0.209l-0.011,-0.211l-0.019,-0.411l-0.016,-0.411l-0.009,-0.295l-0.001,-0.112l0.001,-0.404l0.003,-0.401l0.005,-0.397l0.009,-0.395l0.01,-0.391l0.013,-0.389l0.014,-0.385l0.017,-0.383l0.018,-0.381l0.02,-0.36l-0.113,0.136l-0.123,0.148l-0.124,0.147l-0.125,0.145l-0.125,0.145l-0.127,0.144l-0.127,0.142l-0.129,0.142l-0.13,0.14l-0.131,0.14l-0.133,0.138l-0.134,0.138l-0.135,0.136l-0.137,0.135l-0.139,0.134l-0.141,0.133l-0.143,0.131l-0.144,0.13l-0.147,0.129l-0.148,0.128l0,0l-0.151,0.126l-0.153,0.125l-0.156,0.123l-0.157,0.122l-0.16,0.12l-0.163,0.119l-0.165,0.118l-0.167,0.116l-0.17,0.114l-0.173,0.113l-0.175,0.112l-0.178,0.11l-0.181,0.108l-0.183,0.107l-0.187,0.105l-0.19,0.104l-0.192,0.102l-0.196,0.101l-0.199,0.099l-0.202,0.098l-0.205,0.096l-0.209,0.095l-0.212,0.094l-0.216,0.091l-0.219,0.091l-0.223,0.089l-0.227,0.088l-0.23,0.086l-0.235,0.085l-0.238,0.083l-0.242,0.082l-0.247,0.081l-0.251,0.08l-0.255,0.079l-0.259,0.077l-0.179,0.051l-0.086,0.024l-0.269,0.071l-0.274,0.071l-0.279,0.069l-0.284,0.068l-0.289,0.066l-0.293,0.066l-0.299,0.064l-0.304,0.063l-0.31,0.063l-0.314,0.061l-0.321,0.059l-0.118,0.022l-0.208,0.034l-0.333,0.053l-0.338,0.052l-0.344,0.051l-0.35,0.05l-0.356,0.048l-0.363,0.048l-0.368,0.046l-0.375,0.046l-0.381,0.044l-0.388,0.043l-0.264,0.028l-0.131,0.013l-0.401,0.038l-0.409,0.037l-0.415,0.036l-0.423,0.035l-0.429,0.034l-0.437,0.033l-0.444,0.032l-0.451,0.03l-0.459,0.03l-0.466,0.029l-0.474,0.028l-0.481,0.027l-0.311,0.016l-0.179,0.009l0.173,-0.044l0.302,-0.075l0.468,-0.118l0.459,-0.117l0.452,-0.116l0.443,-0.116l0.436,-0.116l0.428,-0.115l0.42,-0.114l0.412,-0.114l0.405,-0.114l0.398,-0.113l0.39,-0.113l0.383,-0.112l0.124,-0.037l0.252,-0.073l0.369,-0.109l0.362,-0.108l0.356,-0.109l0.348,-0.107l0.341,-0.108l0.335,-0.108l0.328,-0.107l0.321,-0.107l0.315,-0.107l0.308,-0.107l0.192,-0.068l0.111,-0.037l0.296,-0.102l0.291,-0.102l0.285,-0.102l0.278,-0.102l0.273,-0.102l0.266,-0.103l0.261,-0.102l0.255,-0.102l0.25,-0.102l0.244,-0.103l0.238,-0.102l0.075,-0.033l0.159,-0.068l0.229,-0.099l0.223,-0.1l0.219,-0.1l0.213,-0.1l0.209,-0.101l0.203,-0.1l0.199,-0.101l0.194,-0.101l0.19,-0.101l0.185,-0.102l0.181,-0.102l0.176,-0.102l0.172,-0.102l0.168,-0.103l0.164,-0.103l0.16,-0.103l0.157,-0.103l0.152,-0.104l0.149,-0.105l0.146,-0.104l0.142,-0.105l0.139,-0.106l0.136,-0.106l0.133,-0.106l0.129,-0.107l0.128,-0.108l0.124,-0.108l0.122,-0.109l0.119,-0.109l0.117,-0.111l0.115,-0.111l0.113,-0.111l0.111,-0.113l0.109,-0.114l0.108,-0.115l0.105,-0.115l0.105,-0.116l0.103,-0.118l0.102,-0.118l0.1,-0.12l0.099,-0.122l0.099,-0.122l0.097,-0.125l0.097,-0.125l0.096,-0.127l0.095,-0.129l0.095,-0.13l0.094,-0.132l0.094,-0.134l0.093,-0.135l0.094,-0.137l0.093,-0.139l0.093,-0.141l0.094,-0.143l0.093,-0.144l0.094,-0.147l0.094,-0.149l0.094,-0.15l0.094,-0.152l0.192,-0.313l0.194,-0.32l0.197,-0.329l0.201,-0.337l0.417,-0.702l0.217,-0.364l0.223,-0.374l0.231,-0.382l0.238,-0.392l0.247,-0.401l0.254,-0.409l0.027,-0.043l0.107,-0.166l0.136,-0.21l0.138,-0.212l0.141,-0.215l0.143,-0.216l0.147,-0.22l0.149,-0.221l4.594,-6.113l-0.373,7.734Z" style="fill:#001118;"/></svg>