<?xml version="1.0" encoding="UTF-8" standalone="no"?><!DOCTYPE svg PUBLIC "-//W3C//DTD SVG 1.1//EN" "http://www.w3.org/Graphics/SVG/1.1/DTD/svg11.dtd"><svg width="100%" height="100%" viewBox="0 0 64 64" version="1.1" xmlns="http://www.w3.org/2000/svg" xmlns:xlink="http://www.w3.org/1999/xlink" xml:space="preserve" xmlns:serif="http://www.serif.com/" style="fill-rule:evenodd;clip-rule:evenodd;stroke-linejoin:round;stroke-miterlimit:1.41421;"><rect id="astop-icon" serif:id="astop icon" x="-0.314" y="0" width="64" height="64" style="fill:none;"/><path d="M38.101,54.449l-0.832,-46l15.753,-0.32l0,47.258l-14.921,-0.938Z" style="fill:#fff;"/><path d="M24.189,9.068l0.833,46l-15.753,0.319l0,-47.258l14.92,0.939Z" style="fill:#fff;"/><path d="M9.347,6.885l15.096,1.09c0.756,0.243 0.797,0.369 0.868,1.072c0,0 1.303,29.709 1.975,44.334l0.064,1.644c-0.085,3.449 -16.444,2.858 -16.444,2.858l-1.586,0.016c-1.426,-0.124 -1.158,0.006 -1.936,-0.957c-0.342,-0.423 -0.448,-0.468 -0.474,-1.555l0.204,-7.806l0.353,-10.691l0.254,-9.799c0.081,-6.319 0.158,-12.639 0.221,-18.962c0,0 0.07,-0.817 1.201,-1.248c0.064,-0.024 0.136,0.002 0.204,0.004Zm1.202,2.607l0.126,9.968l0.142,8.626l0.254,7.532l0.352,7.969c0,0 0.296,8.185 0.296,8.185c0,0 0.02,1.094 0.02,1.094l2.449,-0.108l3.254,-0.072l4.178,0l0.938,0.011c0,0 0.033,-5.143 0.033,-5.143l0.202,-13.872l0.277,-13.616l0.225,-9.923c0,0 -11.858,-0.607 -11.858,-0.607c0,0 -0.963,-0.124 -0.888,-0.044Z" style="fill:#001118;fill-rule:nonzero;"/><path d="M54.024,57.115l-15.096,-1.09c-0.756,-0.243 -0.796,-0.369 -0.867,-1.072c0,0 -1.303,-29.709 -1.976,-44.334l-0.063,-1.644c0.085,-3.449 16.444,-2.858 16.444,-2.858l1.586,-0.016c1.425,0.124 1.158,-0.006 1.936,0.957c0.341,0.423 0.448,0.468 0.474,1.555l-0.205,7.806l-0.352,10.691l-0.255,9.799c-0.081,6.319 -0.157,12.639 -0.22,18.962c0,0 -0.071,0.817 -1.201,1.248c-0.064,0.024 -0.137,-0.002 -0.205,-0.004Zm-1.201,-2.607l-0.126,-9.968l-0.142,-8.626l-0.255,-7.532l-0.352,-7.969c0,0 -0.296,-8.185 -0.296,-8.185c0,0 -0.02,-1.094 -0.02,-1.094l-2.448,0.108l-3.255,0.072l-4.177,0l-0.938,-0.011c0,0 -0.033,5.143 -0.033,5.143l-0.203,13.872l-0.277,13.616l-0.224,9.923c0,0 11.857,0.607 11.857,0.607c0,0 0.964,0.124 0.889,0.044Z" style="fill:#001118;fill-rule:nonzero;"/></svg>