<svg viewBox="0 0 285 583" fill-rule="evenodd" clip-rule="evenodd"
     stroke-linejoin="round" stroke-miterlimit="1.414">
  <g fill-rule="nonzero">
    <path
      d="M173.918 48.628c-11.074-3.651-18.324-4.01-30.668-9.282-10.421-4.861-9.176-20.974-8.018-35.349-4.255-6.334-28.942-.851-28.942-.851s3.156 26.49-12.166 32.413c-.407.157-.731.392-1.078.5-7.955 2.423-17.212 1.836-26.942 2.965-24.886 2.89-18.158 3.499-13.678 42.759.739 6.48 15.315 44.049 19.333 72.734 2.866 20.467-4.957 57.614-5.039 64.303-.234 19.206 7.309 42.685 11.334 45.909 1.228.986 8.061.501 17.309.043 8.249-.407 18.419-.792 28.252-.093 15.263 1.087 29.592 8.443 35.224 4.144 13.328-10.179 12.774-23.181 13.84-41.482.756-12.967 4.137-74.976 7.417-112.23 1.29-14.681 2.652-25.983 2.678-28.232.37-31.827 5.949-33.369-8.856-38.251z"
      fill="#f8c490"/>
    <path
      d="M168.262 566.376c.104-8.943-31.286-16.558-70.107-17.008-38.826-.45-70.382 6.434-70.485 15.378-.104 8.941 31.284 16.556 70.109 17.006 38.821.45 70.379-6.434 70.483-15.376z"
      fill="#0d0d0d" fill-opacity=".25"/>
    <path
      d="M284.5 567.088c.103-8.942-31.287-16.556-70.11-17.006-38.825-.451-70.379 6.434-70.483 15.375-.104 8.944 31.282 16.556 70.108 17.007 38.823.45 70.381-6.432 70.485-15.376z"
      fill="#0d0d0d" fill-opacity=".25"/>
    <g id="right shoe">
      <path
        d="M269.579 555.773c.027-2.343-21.09-4.486-47.167-4.788-26.076-.303-47.238 1.35-47.265 3.693l-.049 4.24c-.042 3.65 21.063 6.856 47.139 7.158 26.077.303 47.251-2.413 47.293-6.063l.049-4.24z"
        fill="#fff"/>
      <path
        d="M258.367 544.982c-4.485.758-41.437-11.878-46.508-14.104-4.978-2.182-9.734-5.3-14.894-6.927-6.313-1.987-14.388 3.877-17.8 9.525-2.896 4.8-5.347 13.096-3.296 18.709.974 2.674 3.5 3.27 5.805 3.832 5.048 1.23 9.867 1.315 14.994 1.682 11.93.855 65.507 3.792 72.73-2.289 2.386-2.01.329-12.344-11.031-10.428z"
        fill="#e62e2e"/>
      <path
        d="M252.839 558.738c8.088-.505 14.4-1.511 16.559-3.328 2.303-1.939.442-11.598-9.898-10.551l-.02.014c-2.492 1.969-3.595 5.893-4.722 8.716-.522 1.311-1.412 3.237-1.919 5.149z"
        fill="#9a1f1f"/>
      <path
        d="M232.4 545.886c.045-.397-.029-.799-.234-1.11.626-.847 1.107-2.037 1.473-2.655.544-.908 1.245-1.976 1.742-3.058-.726-.23-1.449-.464-2.171-.699-.567 1.176-1.153 2.345-1.737 3.522-.096.194-.761 1.418-1.05 2.43-.811.224-1.563.834-1.994 1.526-.522.832-.115 2.226.934 2.432a2.94 2.94 0 0 0 1.237-.006c.401.035.802-.077 1.173-.441.533-.519.632-1.328.666-2.034l-.039.093zM227.488 536.473c-.735-.246-1.455-.49-2.167-.731-.702 1.011-1.276 2.148-1.823 3.191-.541 1.03-1.758 2.6-1.921 3.924a2.054 2.054 0 0 0-.622.288c-.273.124-.477.304-.583.532l-.205.239c-.223.297-.27.61-.222.902-.17.401.025.932.309 1.224.208.216.441.387.686.559.672.467 1.456.085 1.894-.473.28-.362.309-.87.561-1.213.491-.676.211-1.364-.329-1.774.649-.681 1.094-1.743 1.481-2.417.837-1.467 1.643-3.118 2.941-4.251zM214.428 541.688l-.07-.176c1.628-1.522 2.979-3.442 4.477-5.067.697-.759 1.436-1.473 2.175-2.186-.752-.263-1.473-.516-2.159-.76-.48.597-.921 1.177-1.304 1.626-1.386 1.622-2.943 3.434-3.916 5.41-.514-.289-1.153-.229-1.669.193l-.205.261-.001-.002-.011.027-.09.173-.056.203-.101.264c-.461 2.475 3.384 2.462 2.93.034zM253.141 544.221c-.645-.15-1.332-.321-2.056-.505-1.222 1.287-2.47 2.687-3.346 4.22-.495-.317-1.136-.295-1.677.094l-.221.245h-.004l-.01.026-.1.17-.068.195-.118.256c-.614 2.444 3.228 2.67 2.923.218l-.058-.183c1.701-1.403 3.157-3.216 4.735-4.736zM244.214 541.796c-.646-.193-1.304-.39-1.971-.592-.295.526-.536 1.016-.687 1.266-.741 1.233-1.452 2.511-2.036 3.838-.627-.141-1.406.117-1.734.648-.44.456-.682 1.006-.449 1.719.068.209.191.378.343.521a.948.948 0 0 0 .452.415l.441.194c.473.213 1.196.186 1.524-.291.214-.309.425-.618.636-.929.235-.348.189-1.024-.082-1.342l-.081-.099c.851-1.295 1.712-2.582 2.544-3.888.162-.255.65-.824 1.1-1.46z"
        fill="#fff"/>
    </g>
    <path
      d="M173.083 221.644c-15.377 1.037-32.54 6.65-50.036 5.243-20.315-1.634-39.412-4.869-56.303-9.248-1.142 51.111 9.173 87.684 14.507 137.782 1.762 16.557 3.314 31.413 4.347 42.816 1.683 18.576 4.146 56.082 6.219 89.316.65 10.386-1.136 30.28-1.091 32.647.078 4.29 2.051 4.836 2.27 8.509.131 2.124-1.814 4.996-1.702 6.875.106 1.813 3.18 2.99 2.198 4.202-1.025 1.264-6.551 5.566-2.108 9.679 3.878 3.589 25.464-.203 25.464-.203s20.652 1.622 23.903-2.35c2.015-2.461-1.974-7.82-4.819-8.649-1.517-.443 2.545-1.236 2.267-3.043-.299-1.951-2.681-6.685-3.016-8.892-1.749-11.527-4.907-25.684-7.001-41.346-4.262-31.907-8.196-67.46-7.571-86.56.407-12.425-1.65-24.139-2.287-43.066-.858-25.455-1.174-52.579-1.081-69.842.021-3.944 2.839-9.277 8.429-12.376 4.118-2.281 8.14 13.656 9.575 17.907 9.408 27.864 21.715 86.444 25.832 116.051 3.68 26.457 9.211 92.324 11.897 125.528.213 2.631-2.337 5.854-2.161 8.041.216 2.715 2.858 4.015 2.732 5.68-.235 3.13-.557 4.737 1.002 6.076 4.041 3.476 13.592-3.376 18.068-5.927 4.763-2.717 12.146-17.619 23.194-14.09 2.272.725 4.069-1.946 2.568-5.983-.509-1.367-4.442-1.756-4.761-3.747-.268-1.672.691-3.814.38-5.674-.448-2.683-2.19-5.18-2.715-8.204-5.95-34.185-16.364-88.178-20.322-115.324-6.095-41.809-19.548-109.926-17.878-171.828z"
      fill="#2e6666"/>
    <path
      d="M173.083 221.644c-15.377 1.037-32.54 6.65-50.036 5.243-20.315-1.634-39.412-4.869-56.303-9.248-1.142 51.111 9.173 87.684 14.507 137.782 1.762 16.557 3.314 31.413 4.347 42.816 1.683 18.576 4.146 56.082 6.219 89.316.65 10.386-1.136 30.28-1.091 32.647.078 4.29 2.051 4.836 2.27 8.509.131 2.124-1.814 4.996-1.702 6.875.106 1.813 3.18 2.99 2.198 4.202-1.025 1.264-6.551 5.566-2.108 9.679 3.878 3.589 25.464-.203 25.464-.203s20.652 1.622 23.903-2.35c2.015-2.461-1.974-7.82-4.819-8.649-1.517-.443 2.545-1.236 2.267-3.043-.299-1.951-2.681-6.685-3.016-8.892-1.749-11.527-4.907-25.684-7.001-41.346-4.262-31.907-8.196-67.46-7.571-86.56.407-12.425-1.65-24.139-2.287-43.066-.858-25.455-1.174-52.579-1.081-69.842.021-3.944 2.839-9.277 8.429-12.376 4.118-2.281 8.14 13.656 9.575 17.907 9.408 27.864 21.715 86.444 25.832 116.051 3.68 26.457 9.211 92.324 11.897 125.528.213 2.631-2.337 5.854-2.161 8.041.216 2.715 2.858 4.015 2.732 5.68-.235 3.13-.557 4.737 1.002 6.076 4.041 3.476 13.592-3.376 18.068-5.927 4.763-2.717 12.146-17.619 23.194-14.09 2.272.725 4.069-1.946 2.568-5.983-.509-1.367-4.442-1.756-4.761-3.747-.268-1.672.691-3.814.38-5.674-.448-2.683-2.19-5.18-2.715-8.204-5.95-34.185-16.364-88.178-20.322-115.324-6.095-41.809-19.548-109.926-17.878-171.828z"
      fill="#2e6666"/>
    <path
      d="M173.083 221.644c-15.377 1.037-32.54 6.65-50.036 5.243-20.315-1.634-39.412-4.869-56.303-9.248-1.142 51.111 9.173 87.684 14.507 137.782 1.762 16.557 3.314 31.413 4.347 42.816 1.683 18.576 4.146 56.082 6.219 89.316.65 10.386-1.136 30.28-1.091 32.647.078 4.29 2.051 4.836 2.27 8.509.131 2.124-1.814 4.996-1.702 6.875.106 1.813 3.18 2.99 2.198 4.202-1.025 1.264-6.551 5.566-2.108 9.679 3.878 3.589 25.464-.203 25.464-.203s20.652 1.622 23.903-2.35c2.015-2.461-1.974-7.82-4.819-8.649-1.517-.443 2.545-1.236 2.267-3.043-.299-1.951-2.681-6.685-3.016-8.892-1.749-11.527-4.907-25.684-7.001-41.346-4.262-31.907-8.196-67.46-7.571-86.56.407-12.425-1.65-24.139-2.287-43.066-.858-25.455-1.174-52.579-1.081-69.842.021-3.944 2.839-9.277 8.429-12.376 4.118-2.281 8.14 13.656 9.575 17.907 9.408 27.864 21.715 86.444 25.832 116.051 3.68 26.457 9.211 92.324 11.897 125.528.213 2.631-2.337 5.854-2.161 8.041.216 2.715 2.858 4.015 2.732 5.68-.235 3.13-.557 4.737 1.002 6.076 4.041 3.476 13.592-3.376 18.068-5.927 4.763-2.717 12.146-17.619 23.194-14.09 2.272.725 4.069-1.946 2.568-5.983-.509-1.367-4.442-1.756-4.761-3.747-.268-1.672.691-3.814.38-5.674-.448-2.683-2.19-5.18-2.715-8.204-5.95-34.185-16.364-88.178-20.322-115.324-6.095-41.809-19.548-109.926-17.878-171.828z"
      fill="#404040"/>
    <path d="M190.961 393.472c-.967-6.639-2.121-13.942-3.37-21.78 1.249 7.836 2.403 15.141 3.37 21.78z" fill="#6e7172"/>
    <path
      d="M177.389 553.384c4.662.054 11.608-4.826 15.228-6.89 4.283-2.443 10.682-14.734 19.959-14.626-9.277-.108-15.676 12.183-19.959 14.626-3.62 2.064-10.566 6.944-15.228 6.89z"
      fill="#862a2a"/>
    <path
      d="M177.389 553.384a5.608 5.608 0 0 1-.957-.089c-.708-.131-1.344-.41-1.883-.874-.974-.837-1.215-1.778-1.199-3.131.009-.812.11-1.771.197-2.945.003-.032.005-.064.006-.098.016-1.618-2.527-2.919-2.738-5.582a2.796 2.796 0 0 1-.009-.261c.028-2.069 2.151-4.953 2.182-7.407a3.852 3.852 0 0 0-.012-.373c-2.686-33.204-8.217-99.071-11.897-125.528-4.117-29.607-16.424-88.187-25.832-116.051a74.18 74.18 0 0 1-.577-1.841c-5.017-20.324-5.376-27.914-3.522-27.893 3.055.036 12.113 20.721 16.261 39.189 2.955 13.158 15.495 59.055 21.547 70.609 2.458 4.694 8.64 25.984 13.73 27.921.487.185.935.276 1.352.281 6.517.076 4.595-21.045 2.813-32.25l.74 4.631c1.249 7.838 2.403 15.141 3.37 21.78 3.958 27.146 14.372 81.139 20.322 115.324.525 3.024 2.267 5.521 2.715 8.204.048.29.067.588.061.889-.016 1.365-.474 2.812-.488 4.076-.003.243.01.481.047.709.319 1.991 4.252 2.38 4.761 3.747.394 1.064.563 2.032.551 2.87-.025 2-1.065 3.247-2.412 3.231a2.434 2.434 0 0 1-.707-.118l-.04-.012a10.978 10.978 0 0 0-3.195-.524c-9.277-.108-15.676 12.183-19.959 14.626-3.62 2.064-10.566 6.944-15.228 6.89z"
      fill="#333"/>
    <path
      d="M91.95 494.678c.03-2.61-.004-5.056-.133-7.125-2.073-33.234-4.536-70.74-6.219-89.316-1.033-11.403-2.585-26.259-4.347-42.816-1.539-14.433-3.488-27.729-5.458-40.586l.006.012c1.968 12.851 3.917 26.151 5.452 40.574 1.762 16.557 3.314 31.413 4.347 42.816 1.683 18.576 4.146 56.082 6.219 89.316.129 2.069.163 4.515.133 7.125zm26.374-139.322l-.003-.082.003.082zm-.71-27.02zm-.003-.082c-.287-14.708-.405-28.597-.382-39.374v-.002c-.021 10.777.095 24.668.382 39.376z"
      fill="#6e7172"/>
    <path
      d="M98.75 551.005c-3.358-.039-6.185-.446-7.366-1.54-1.258-1.164-1.717-2.345-1.704-3.466.031-2.84 3.077-5.307 3.812-6.213a.786.786 0 0 0 .193-.49c.014-1.052-2.298-2.142-2.391-3.712a1.934 1.934 0 0 1-.004-.202c.025-1.803 1.687-4.403 1.713-6.422a3.489 3.489 0 0 0-.007-.251c-.219-3.673-2.192-4.219-2.27-8.509-.002-.053-.001-.115 0-.185.026-2.447 1.105-15.141 1.224-25.337.03-2.61-.004-5.056-.133-7.125-2.073-33.234-4.536-70.74-6.219-89.316-1.033-11.403-2.585-26.259-4.347-42.816-1.535-14.423-3.484-27.723-5.452-40.574 2.579 6.612 4.031 13.753 5.471 20.597 1.305 6.192 2.519 12.341 3.564 18.578 2.217 13.237 4.467 27.646 10.593 39.729 1.497 2.953 4.465 8.428 8.354 8.473.734.009 1.501-.176 2.296-.608 7.632-4.136 8.96-15.468 9.525-23.177.066-.866.106-1.731.152-2.597-.883-11.617-1.024-23.246-1.743-34.879-.772-12.452-1.886-24.97-.325-37.403.467-3.711 1.409-9.745 3.543-14.68-.023 10.777.095 24.666.382 39.374.002.01.002.018.002.028a1927.66 1927.66 0 0 0 .708 26.992l.003.082c.6 17.855 2.467 29.292 2.333 40.959-.008.7-.022 1.403-.046 2.107-.026.82-.044 1.672-.056 2.552-.229 19.595 3.549 53.472 7.627 84.008 2.094 15.662 5.252 29.819 7.001 41.346.335 2.207 2.717 6.941 3.016 8.892.009.064.014.126.014.188-.013 1.401-2.622 2.157-2.621 2.616-.001.091.1.168.34.239 2.318.676 5.392 4.355 5.365 7.027-.005.609-.173 1.166-.546 1.622-1.925 2.351-9.946 2.741-16.174 2.669-4.29-.05-7.729-.319-7.729-.319s-10.435 1.832-18.098 1.743z"
      fill="#333"/>
    <path
      d="M114.62 521.09c.259.007.325-.475.06-.556-6.538-1.87-17.451-3.375-23.333 3.06.587 1.548 1.388 2.621 1.601 4.739 3.961-7.857 15.828-7.362 21.672-7.243zM128.337 523.275c3.016 2.202 6.894 4.884 8.908 8.974-.806-2.085-1.847-4.513-2.062-5.919a238.614 238.614 0 0 0-.51-3.167 29.283 29.283 0 0 0-3.258-1.812c-4.532-2.152-9.138-4.181-13.857-5.457-.48-.132-.744.833-.282 1.106 3.661 2.142 7.536 3.698 11.061 6.275zM192.912 526.391c-.279.134-.116.513.17.441 6.456-1.663 19.481-5.244 25.433.067l-.136-.478c-.509-1.367-4.44-1.756-4.761-3.747-.072-.456-.052-.951.007-1.463-7.083-.444-15.375 2.631-20.713 5.18zM172.948 533.342c2.154-3.2 5.952-5.607 8.951-7.604 3.823-2.552 8.124-4.282 12.135-6.483.504-.279.13-1.064-.404-.902-5.279 1.589-10.38 3.795-15.38 6.098-1.872.862-3.851 1.953-5.672 3.265.138 1.696.273 3.35.398 4.908.019.234-.007.477-.028.718zM194.791 532.985c-5.277 1.589-10.378 3.797-15.38 6.098-2.45 1.129-5.083 2.641-7.299 4.549.741.989 1.506 1.8 1.435 2.713-.087 1.17-.188 2.127-.197 2.935 1.893-3.867 6.321-6.65 9.71-8.91 3.824-2.55 8.125-4.282 12.136-6.483.504-.279.13-1.064-.405-.902z"
      fill="#262626"/>
    <path
      d="M137.762 536.38c-6.459-2.314-14.762-2.057-20.372-1.383-.31.036-.276.447.023.471 5.964.442 17.437 1.11 22.58 6.257-1.1-1.643-2.708-3.065-4.061-3.462-1.143-.333.881-.866 1.83-1.883zM92.722 540.606c2.631-2.085 6.069-3.48 8.883-4.687 4.224-1.811 8.767-2.73 13.113-4.165.547-.181.325-1.022-.231-.96-5.481.601-10.898 1.841-16.236 3.192-2.166.55-4.508 1.343-6.682 2.429.739 1.36 2.745 2.355 1.923 3.371-.16.198-.441.482-.77.82zM72.506 293.329c-2.241-10.356-6.988-24.714-8.482-28.39-1.494-3.675-1.488-4.008 2.219-5.961 3.708-1.953 22.861-11.376 26.985-22.638 1.185-3.231 4.292.715 5.504 2.06 1.212 1.345-5.332 45.877-26.226 54.929zM154.051 235.789c1.868-2.046 2.773-.707 4.864 4.307 2.093 5.013 11.473 17.521 14.831 19.177 3.359 1.657 3.16 5.647 1.911 7.295-1.246 1.647-.957 16.078-.407 21.323-8.256-2.798-24.955-31.277-24.653-45.563 1.579-3.637 3.454-6.539 3.454-6.539z"
      fill="#404040"/>
    <path
      d="M98.788 238.552l-.056-.152c-1.212-1.345-4.319-5.291-5.504-2.06-4.124 11.262-23.277 20.685-26.985 22.638-3.707 1.953-3.713 2.286-2.219 5.961.122.305.277.71.444 1.155 11.496-4.243 26.729-16.434 34.32-27.542zM173.746 259.273c-3.358-1.656-12.738-14.164-14.831-19.177-2.091-5.014-2.996-6.353-4.864-4.307 0 0-.424.663-1.032 1.732 4.307 10.36 13.704 23.301 22.383 29.552l.188-.379c.283-1.329.575-2.314.845-2.67l.049-.087c.058-1.71-.652-3.636-2.738-4.664zM130.839 234.24c-.022 1.958-1.894 27.523-3.277 30.484-4.951-.057-6.144-4.064-6.38-7.609-.283-4.28 1.744-19.422 2.244-23.775.499-4.349 7.413.9 7.413.9z"
      fill="#666"/>
    <path
      d="M126.977 262.54c-1.444-.442-2.68-1.777-2.93-5.548-.222-3.363 1.134-14.418 1.865-20.352.15-1.222.276-2.252.362-2.992.914.145 2.317.897 3.402 1.61-.256 4.897-1.68 22.019-2.699 27.282z"
      fill="#404040"/>
    <g id="left shoe">
      <path
        d="M142.435 557.098c.028-2.343-12.961-4.391-29.01-4.577-16.049-.186-29.08 1.56-29.107 3.903l-.049 4.24c-.042 3.65 12.932 6.76 28.981 6.946 16.049.186 29.094-2.622 29.136-6.272l.049-4.24z"
        fill="#fff"/>
      <path
        d="M84.871 555.932l.007.059c-.193.306-.147.781.279.872 7.987 1.713 16.466 2.857 24.652 2.345 8.869.662 32.452-1.006 32.626-2.11 1.16-7.375.215-18.502-28.868-16.843-20.962 1.196-27.203 9.583-28.696 15.677z"
        fill="#e62e2e"/>
      <path
        d="M121.76 543.651c-16.995-2.405-28.544 2.568-33.031 13.068l.26.188c7.39 1.707 15.23 2.843 22.804 2.324 5.578.444 17.438-.195 24.518-.995-1.137-8.924-4.75-13.198-14.551-14.585z"
        fill="#9a1f1f"/>
    </g>
    <g id="left arm">
      <path
        d="M95.883 245.328c.67.874 1.298 1.787 1.875 2.754-5.134 4.329-9.131 9.785-14.726 13.841-2.846 2.062-6.692 4.409-10.561 7.074-3.638-1.747-6-4.033-8.332-8.79-1.673-3.408-6.87-10.98-6.353-15.576.109-.959.376-2.008.758-3.097v-.008c-1.727-9.563-33.45-38.905-37.514-46.907-7.416-14.607-10.954-12.752-14.751-24.18-2.035-6.114-3.156-17.836 4.919-21.478 6.655-3.004 13.702 3.29 17.739 7.27 5.995 5.905 15.397 15.875 19.216 23.354 8.5 16.649 13.001 43.08 24.095 48.224l.217.094c.937-.113 1.881-.094 2.82.119 3.092.694 5.728 2.546 8.12 4.692 2.909 2.386 9.614 5.176 11.857 5.638 2.602.537 4.273.692 4.289.69.83.036 1.703.279 2.522.207.396-.035.81 2.217.543 3.066-.483 1.527-1.21 2.684-2.009 3.032-1.249.545-2.9.442-4.724-.019z"
        fill="#f8c490"/>
      <path
        d="M49.553 42.833c-6.73 6.969-20.51 48.026-24.813 59.368-4.302 11.342-15.579 31.89-18.227 37.589-7.608 16.377-9.427 22.592 1.928 37.773 14.083 18.829 41.39 67.738 42.348 69.651.955 1.915 22.934-20.789 21.093-24.474-1.188-2.377-26.983-51.509-31.089-58.165-.631-1.025 1.223-5.358.699-6.236-1.353-2.267-4.709-.574-4.789-1.095-.126-.844 4.934-1.65 5.408-3.235.411-1.386-2.697-1.995-1.932-3.792.882-2.081 2.225.718 2.934-1.888 3.975-14.592 14.384-33.644 16.558-36.798 6.499-9.426 4.642-28.615 2.077-42.848-5.445-30.22-12.195-25.85-12.195-25.85z"
        fill="#fff"/>
      <path
        d="M39.187 162.96c-3.789.289-6.869-.694-10.546-1.509-.239-.055-.45.114-.21.221 2.74 1.227 8.196 3.124 11.374 2.419.954-.209.485-1.214-.618-1.131zm-23.395-4.177c-3.746.849-6.797 4.062-9.176 6.875-1.631 1.931 2.036 3.59 2.385 1.019.486-3.584 4.301-5.69 6.917-7.593.145-.106.066-.345-.126-.301zm19.183-2.603c-1.838-1.425-5.379-.821-7.596-.859-2.913-.053-5.932.283-8.449 1.844-.161.1-.062.377.128.317 3.327-1.043 6.564-.852 9.929-.059 1.855.439 4.213 1.418 5.969.399.673-.389.567-1.217.019-1.642zm3.921-7.894c-3.443-2.905-9.133-3.86-13.096-1.209l.013.1c1.609.322 3.295-.124 4.927-.155 2.645-.047 4.715.995 6.418 2.964 1.038 1.2 2.932-.694 1.738-1.7z"
        fill="#ccc"/>
    </g>
    <g>
      <path
        d="M173.918 48.628c-9.634-3.177-16.38-3.864-26.099-7.461-.01.369-.011.738-.063 1.107-1.283 8.788-14.81 14.089-30.212 11.843-14.116-2.059-24.88-9.744-25.599-17.777-7.705 2.064-16.549 1.606-25.841 2.684-24.886 2.89-18.158 3.499-13.678 42.759.64 5.611 5.731 28.669 12.09 52.872-.44 4.49-.386 8.773 1.224 13.126 1.15 3.105 2.346 6.621 4.108 9.629.412 3.174.639 6.324.742 9.433-.66 1.738-2.015 3.621-2.015 5.467-.002 2.734.473 6.401 1.561 9.651a157.948 157.948 0 0 1-.89 7.727 37.397 37.397 0 0 0-3.309 4.099c-2.178 3.132-2.053 6.524.189 9.144a9.693 9.693 0 0 0-1.694 4.67c-.126 1.424.353 2.779.696 4.138l.013.066c-.222 1.264-.361 2.287-.37 3.001-.234 19.206 108.884 26.868 109.95 8.568.04-.649.077-1.434.118-2.288.984-1.003 1.833-2.104 2.23-3.493.589-2.07-.368-4.524-1.379-6.653.372-.966.557-2.085.89-2.994.497-1.351 1.222-2.726 1.153-4.181-.062-1.27-.797-2.528-1.821-3.578 1.449-5.301 2.639-9.82 1.419-15.478-.256-1.188-.595-2.362-.963-3.53.856-21.527 2.039-46.743 3.728-66.068 1.139-13.031 2.654-26.151 2.678-28.232.37-31.827 5.949-33.369-8.856-38.251z"
        fill="#3e6a5e"/>
      <path
        d="M130.91 78.12c.683-.002 1.281.027 1.672.111.734.094 1.357.576 1.869 1.446.6 1.021.974 2.426 1.121 4.213.147 1.788.075 3.862-.217 6.224-.292 2.361-.841 10.627-1.718 13.259.097-.292.263-.493.497-.601.234-.108.434-.262.6-.463 1.434-1.034 2.858-1.445 4.273-1.233 1.415.211 2.616.77 3.601 1.674 1.465 1.55 2.492 3.518 3.084 5.904a18.44 18.44 0 0 1 .325 7.272c-.375 2.462-1.247 4.783-2.618 6.962-1.37 2.18-3.294 3.719-5.772 4.618-.585.27-1.414.53-2.488.779a8.143 8.143 0 0 1-3.227.1c-1.078-.182-2.164-.638-3.257-1.37-1.093-.732-1.952-1.942-2.578-3.633-.468-1.267-.891-3.267-1.268-6s-.58-5.762-.611-9.088c-.031-3.326.109-12.515.488-16.031.336-3.116.933-5.964 1.791-8.544l-1.582.582a485.351 485.351 0 0 0-5.209 2.262c-2.975 1.313-5.514 2.668-7.615 4.065-.176.11-.346.22-.51.328.432.955.709 2.172.831 3.651.147 1.788.11 9.631-.182 11.993-.292 2.361-.876 4.858-1.753 7.49.094-.283.253-.48.475-.59l.066-.032c.215-.106.401-.254.556-.442 1.434-1.034 2.858-1.445 4.273-1.233 1.415.212 2.616.77 3.602 1.675 1.464 1.549 2.492 3.517 3.083 5.904.591 2.386.699 4.81.325 7.271-.375 2.462-1.247 4.783-2.617 6.963-1.371 2.179-3.295 3.718-5.773 4.617-.585.27-1.414.53-2.488.779a8.143 8.143 0 0 1-3.227.1c-1.078-.181-2.164-.638-3.257-1.37-.085-.056-1.617-1.68-1.617-1.68a9.724 9.724 0 0 1-.96-1.952c-.469-1.268-.892-3.268-1.269-6.001-.377-2.733-.58-5.762-.611-9.088-.03-3.326.144-6.746.523-10.262.379-3.515 1.055-12.458 2.098-15.29.577-1.732 1.39-2.94 2.438-3.624.512-.67 1.182-1.369 2.008-2.099a46.62 46.62 0 0 1 4.4-3.013 209.075 209.075 0 0 1 4.274-2.515 92.368 92.368 0 0 1 4.715-2.318c1.059-.387 4.697-1.571 5.853-1.628 1.011-.051 2.307-.131 3.41-.141l.173-.001z"
        fill="#fff"/>
      <path
        d="M68.249 80.128c-1.54-11.752-6.69-28.468-14.558-37.67-.963-1.125-2.22-1.042-3.139-.38-6.908 1.633-9.776 13.288-11.652 18.794-5.376 15.794-18.767 36.819-22.428 53.253-.27 1.202.576 1.919 1.526 2.764 5.774 5.148 21.661 12.455 32.491 16.279 8.429 2.975 6.523 2.304 9.14-3.574 1.877-4.224 8.443-19.033 9.455-23.163 1.902-7.771.304-17.614-.835-26.303z"
        fill="#58bd9d"/>
    </g>
    <path
      d="M123.742 32.352c2.79 1.165 8.766 1.927 14.358 2.535-4.75-7.148-3.728-19.578-2.742-30.943-4.217-6.36-28.937-1.027-28.937-1.027s-2.289 21.232 17.321 29.435z"
      fill="#e6a25e"/>
  </g>
</svg>
