<?xml version="1.0" encoding="UTF-8" standalone="no"?><!DOCTYPE svg PUBLIC "-//W3C//DTD SVG 1.1//EN" "http://www.w3.org/Graphics/SVG/1.1/DTD/svg11.dtd"><svg width="100%" height="100%" viewBox="0 0 240 340" version="1.1" xmlns="http://www.w3.org/2000/svg" xmlns:xlink="http://www.w3.org/1999/xlink" xml:space="preserve" xmlns:serif="http://www.serif.com/" style="fill-rule:evenodd;clip-rule:evenodd;stroke-linejoin:round;stroke-miterlimit:1.41421;"><g id="face"><g id="face1" serif:id="face"><path d="M37.147,201.698c0,-8.395 -0.292,-16.475 -1.367,-24.692c-0.194,-1.594 -0.63,-2.83 -1.141,-3.901c-0.057,-0.692 -0.086,-1.38 -0.144,-2.072c-0.181,-1.907 -0.708,-3.27 -1.351,-4.394c0.185,-2.55 -0.465,-5.371 -2.372,-6.586c-3.39,-2.183 -6.965,-3.027 -10.462,-2.801l-0.91,-0.053c-0.527,-0.219 -1.088,-0.252 -1.619,-0.128c-4.547,-0.021 -8.983,1.495 -12.546,6.096c-5.107,6.602 -5.762,17.789 -3.929,27.447c0.07,0.371 0.165,0.75 0.251,1.133c0.532,4.959 1.854,9.637 4.099,13.336c0.543,0.935 1.161,1.722 1.799,2.438c6.166,10.981 15.363,17.484 23.621,11.603c2.599,-0.655 4.84,-3.789 4.84,-9.424c0,-0.791 -0.025,-1.553 -0.025,-2.356c0.75,-1.511 1.256,-3.361 1.256,-5.646Z" style="fill:#ff9b54;fill-rule:nonzero;"/><path d="M30.17,196.537c0,-3.316 -0.094,-6.471 -0.531,-9.7c-0.095,-0.626 -0.235,-1.112 -0.457,-1.532l-0.054,-0.82c-0.07,-0.745 -0.267,-1.285 -0.523,-1.713c0.07,-1.005 -0.206,-2.113 -0.931,-2.607c-1.342,-0.845 -2.726,-1.178 -4.106,-1.088l-0.346,-0.008l-0.638,-0.066c-1.8,0 -3.53,0.593 -4.931,2.406c-2.018,2.582 -2.269,6.977 -1.561,10.758l0.112,0.457c0.239,1.948 0.741,3.781 1.594,5.227l0.712,0.955c2.422,4.325 6.038,6.878 9.276,4.576c1.058,-0.268 1.911,-1.503 1.911,-3.703l0,-0.931c0.267,-0.589 0.473,-1.305 0.473,-2.211Z" style="fill:#cf5025;fill-rule:nonzero;"/><path d="M202.239,211.187c1.199,-7.195 2.525,-14.074 4.584,-20.956c0.42,-1.335 0.968,-2.364 1.524,-3.184c0.144,-0.589 0.28,-1.174 0.437,-1.763c0.416,-1.606 1.042,-2.702 1.746,-3.571c0.202,-2.216 1.17,-4.53 2.928,-5.317c3.221,-1.425 6.401,-1.635 9.346,-0.955l0.803,0.057c0.507,-0.086 0.984,-0.045 1.417,0.124c3.888,0.63 7.48,2.541 9.893,6.96c3.485,6.368 2.492,16.059 -0.42,24.07l-0.379,0.939c-1.145,4.177 -2.928,7.995 -5.346,10.862c-0.597,0.72 -1.236,1.305 -1.878,1.845c-6.796,8.546 -15.586,12.834 -21.85,6.668c-2.109,-0.919 -3.625,-3.925 -2.821,-8.748c0.09,-0.667 0.214,-1.339 0.308,-2.006c-0.399,-1.421 -0.601,-3.056 -0.292,-5.025Z" style="fill:#ff9b54;fill-rule:nonzero;"/><path d="M212.799,206.039c0.515,-3.061 1.075,-5.989 1.953,-8.922c0.181,-0.564 0.395,-1.009 0.655,-1.346l0.156,-0.75c0.181,-0.684 0.478,-1.153 0.77,-1.52c0.091,-0.943 0.486,-1.927 1.24,-2.269c1.38,-0.593 2.723,-0.696 3.958,-0.396l0.363,0.025l0.589,0.054c1.672,0.267 3.196,1.083 4.213,2.953c1.479,2.71 1.059,6.829 -0.165,10.239l-0.185,0.404c-0.486,1.775 -1.227,3.402 -2.269,4.609l-0.783,0.786c-2.904,3.633 -6.631,5.466 -9.292,2.842c-0.906,-0.395 -1.54,-1.668 -1.203,-3.707l0.132,-0.873c-0.181,-0.601 -0.272,-1.297 -0.132,-2.129Z" style="fill:#cf5025;fill-rule:nonzero;"/><path d="M124.365,337.342c2.789,1.165 8.766,1.927 14.357,2.535c-4.749,-7.148 -3.727,-19.578 -2.742,-30.943c-4.217,-6.36 -28.936,-1.026 -28.936,-1.026c0,0 -2.289,21.231 17.321,29.434Z" style="fill:#e6a25e;fill-rule:nonzero;"/><path d="M223.479,189.473c8.693,-30.225 6.471,-65.163 4.926,-77.778c-8.328,-68.042 -55.043,-72.152 -81.444,-75.835c-48.955,-6.82 -115.695,4.646 -120.909,53.569c-11.409,106.988 13.867,146.022 16.417,162.315c5.647,36.06 31.904,65.146 66.345,75.114c8.896,2.574 31.409,5.577 45.33,5.486c23.201,-0.144 41.464,-29.647 46.394,-43.992c14.551,-42.407 9.787,-53.14 22.941,-98.879Z" style="fill:#ffbc79;fill-rule:nonzero;"/></g><g id="nose"><path d="M153.486,215.003c-3.954,-11.831 -5.737,-18.082 -9.417,-30.258c-3.089,-10.227 -4.275,-24.095 -6.343,-18.146c-1.573,4.526 -7.025,32.586 -9.32,45.824c-0.605,3.484 -0.879,3.479 -0.918,4.208c-0.177,3.509 1.352,5.273 4.568,8.193c4.788,4.351 10.503,4.418 15.941,2.245c5.682,-2.27 8.076,-4.336 5.489,-12.066Z" style="fill:#cf5025;fill-opacity:0.668345;fill-rule:nonzero;"/><path d="M152.313,211.434c-3.735,-10.971 -4.88,-16.813 -8.36,-28.105c-2.92,-9.489 -4.04,-22.348 -5.992,-16.832c-1.877,5.306 -10.296,45.534 -10.462,48.788c-0.166,3.249 1.134,2.405 4.136,3.315c1.388,0.423 15.16,2.06 17.925,2.787c6.989,1.844 5.195,-2.781 2.753,-9.953Z" style="fill:#ff9b54;fill-opacity:0.668345;fill-rule:nonzero;"/></g><g><g><path d="M84.387,168.362c-29.436,0 -29.436,20.164 0,20.164c29.43,0 29.43,-20.164 0,-20.164Z" style="fill:#fff;fill-rule:nonzero;"/><path d="M85.338,172.068c-10.966,0 -10.966,17.02 0,17.02c10.986,0 10.986,-17.02 0,-17.02Z" style="fill:#262626;fill-rule:nonzero;"/><path d="M86.892,169.339c10.321,0.276 14.884,9.984 17.55,9.115c8.003,-2.582 -11.574,-14.452 -19.723,-13.246c-7.421,1.101 -27.273,9.926 -23.267,12.077c1.851,0.988 9.953,-8.362 25.44,-7.946Z" style="fill:#262626;fill-rule:nonzero;"/><path d="M175.185,173.186c-28.64,0 -28.64,19.8 0,19.8c28.641,0 28.641,-19.8 0,-19.8Z" style="fill:#fff;fill-rule:nonzero;"/><path d="M178.698,174.158c11.73,0.317 16.147,8.315 18.247,7.223c5.28,-2.749 -12.764,-13.158 -20.534,-11.994c-7.442,1.107 -27.497,9.053 -23.355,11.21c1.908,0.987 10.244,-6.85 25.642,-6.439Z" style="fill:#262626;fill-rule:nonzero;"/><path d="M175.408,175.966c-10.976,0 -10.976,17.02 0,17.02c10.971,0 10.971,-17.02 0,-17.02Z" style="fill:#262626;fill-rule:nonzero;"/><path d="M106.942,137.913c-17.473,-7.234 -52.022,-9.781 -62.79,8.565c-4.444,7.572 0.093,7.005 6.169,0.722c12.701,-13.143 37.356,-3.233 52.073,1.668c2.422,0.816 9.194,-0.421 11.054,-3.825c1.674,-3.061 -2.323,-5.405 -6.506,-7.13Z" style="fill:#664228;fill-rule:nonzero;"/><path d="M155.104,143.88c14.64,-8.814 45.198,-15.778 57.302,-0.847c5.004,6.179 0.862,6.288 -5.421,1.486c-13.132,-10.02 -33.832,2.167 -46.325,8.539c-2.058,1.06 -8.285,0.868 -10.405,-1.923c-1.907,-2.5 1.346,-5.145 4.849,-7.255Z" style="fill:#664228;fill-rule:nonzero;"/></g></g><g id="mouth"><path d="M193.046,260.834c0,0 -13.165,39.302 -52.046,36.048c-38.889,-3.258 -67.863,-45.756 -72.109,-51.555c-4.259,-5.799 -2.105,-8.324 3.628,-3.978c25.289,19.144 81.428,30.907 113.583,18.62c14.209,-5.42 6.944,0.865 6.944,0.865Z" style="fill:#262626;fill-rule:nonzero;"/><clipPath id="_clip1"><path d="M193.046,260.834c0,0 -13.165,39.302 -52.046,36.048c-38.889,-3.258 -67.863,-45.756 -72.109,-51.555c-4.259,-5.799 -2.105,-8.324 3.628,-3.978c25.289,19.144 81.428,30.907 113.583,18.62c14.209,-5.42 6.944,0.865 6.944,0.865Z" clip-rule="nonzero"/></clipPath><g clip-path="url(#_clip1)"><path d="M131.201,262.83c-18.916,-2.604 -33.992,-13.166 -41.181,-11.887c2.897,10.366 19.506,20.125 40.621,23.026c20.547,2.821 38.707,-1.768 44.822,-10.499c-5.132,-5.212 -23.786,2.177 -44.262,-0.64Z" style="fill:#fff;fill-rule:nonzero;"/></g></g><path id="hair" d="M235.864,39.221c-5.7,-17.162 -0.762,-29.325 1.096,-35.845c0.577,-2.031 -1.928,-3.287 -3.39,-1.973c-1.507,1.355 -2.825,2.813 -4.044,4.329c-0.317,-0.181 -0.68,-0.293 -1.1,-0.218c-0.914,0.168 -1.808,0.436 -2.681,0.766c0.547,-0.589 1.136,-1.178 1.664,-1.767c1.046,-1.162 0.057,-3.262 -1.59,-2.743c-2.756,0.865 -5.177,2.343 -7.48,4.057l0.507,-0.931c0.403,-1.013 -0.433,-2.076 -1.347,-2.377c-6.388,-2.088 -13.39,2.113 -19.745,5.651c0.453,-1.223 -0.256,-2.636 -1.878,-2.772c-6.352,-0.539 -12.497,1.392 -18.671,2.706c-3.081,0.651 -6.211,1.327 -9.349,1.981c2.582,-1.313 4.86,-2.982 6.437,-5.292c0.659,-0.964 0.004,-2.43 -1.099,-2.694c-6.78,-1.61 -13.395,2.434 -19.774,4.547c-6.071,2.014 -12.521,3.196 -18.761,4.836c3.369,-2.575 6.223,-5.701 8.241,-9.556c0.622,-1.186 -0.589,-2.207 -1.713,-1.717c-9.234,4.04 -16.908,10.078 -26.591,13.431c-4.926,1.701 -10.049,1.997 -15.124,2.418c2.068,-1.298 4.115,-2.632 6.08,-4.123c1.186,-0.894 0.918,-2.978 -0.804,-2.966c-13.34,0.074 -25.68,8.501 -37.188,14.424c-5.28,2.718 -11.12,4.794 -16.359,7.607c0.177,-1.145 -0.664,-2.483 -1.99,-1.989c-21.051,7.867 -29.325,54.899 -30.754,83.326c-0.61,12.085 5.564,60.739 6.104,67.605c0.271,3.501 3.34,3.649 5.902,4.127c9.073,1.71 14.115,-0.23 12.48,-3.645c-2.196,-4.588 -7.867,-21.78 -8.559,-26.809c-1.203,-8.678 18.435,-63.795 31.018,-70.521c29.692,-15.857 54.631,-6.24 84.224,4.242c0.021,0.507 0.391,1.224 0.943,0.952c41.188,-20.581 67.445,14.774 77.099,5.791c14.123,-13.147 13.86,-37.794 8.196,-54.858Z" style="fill:#664228;fill-rule:nonzero;"/></g></svg>