<svg viewBox="0 0 138 173" fill-rule="evenodd" clip-rule="evenodd"
     stroke-linejoin="round" stroke-miterlimit="1.414">
  <g id="right arm">
    <path d="M137.188 73.64l-7.475 6.49-35.949-44.64 12.744-10.128 30.68 48.278" fill="#333"/>
    <path
      d="M89.127.517c9.882-1.021 18.734 6.173 19.755 16.055 1.021 9.882-6.173 18.733-16.055 19.754-9.882 1.021-18.734-6.173-19.755-16.055C72.051 10.39 79.245 1.538 89.127.517z"
      fill="#333"/>
    <clipPath id="a">
      <path
        d="M89.127.517c9.882-1.021 18.734 6.173 19.755 16.055 1.021 9.882-6.173 18.733-16.055 19.754-9.882 1.021-18.734-6.173-19.755-16.055C72.051 10.39 79.245 1.538 89.127.517z"/>
    </clipPath>
    <g clip-path="url(#a)">
      <path
        d="M104.509 5.298c-5.634 11.893-15.895 19.428-30.026 23.291l3.064 3.95c13.771-3.693 24.322-10.873 30.027-23.29l-3.065-3.951z"
        fill="#8c8c8c"/>
    </g>
    <path
      d="M134.076 68.064c-3.254 2.751-6.449 10.141-11.157 10.568-1.091.098-2.197-.009-3.31-.254l-.247.071c-6.949 4.64-19.943 28.925-28.573 45.533-3.874 7.461-15.051 14.488-21.616 19.976-4.423 3.702-7.06 14.446-15.143 10.344-9.805-4.973-9.452-17.32-7.563-23.566 3.524-11.676 4.985-11.067 15.364-23.796 8.261-10.134 42.537-25.087 40.819-40.974 0-.005-1.49-6.369-1.698-7.408-.339-1.699.658-4.399 2.305-7.182 1.522-2.572 4.708-.573 6.802-2.558 2.266-2.151 4.871-7.833 6.498-7.535 5.546 1.018 3.869 3.401 7.389 5.983 6.919 5.078 10.315 5.565 12.169 12.775 1.145 4.435-.449 6.681-2.039 8.023z"
      fill="#f8c490" fill-rule="nonzero"/>
    <path
      d="M43.958 131.744c-1.298-4.924 1.365-31.479-1.388-51.842-1.175-8.691-2.988-17.272-4.31-25.937-1.038-6.82-1.984-13.624-5.636-19.613-.4-.651-1.128-.497-1.516-.041-.345-.028-.68.132-.826.575-6.282-2.088-14.288-1.933-15.125 3.482-7.903 48.436-3.479 57.639-5.172 85.843-.645 10.753-.328 16.958 2.36 32.431 3.495 8.883 23.03 14.377 30.974 16.325 35.932-19.585 75.89-87.538 74.411-90.236-1.927-3.517-10.088-1.331-14.006-6.312-3.622-4.605-4.493-3.945-4.456-6.252.077-4.595-26.209 21.574-42.598 41.329-8.33 10.042-11.077 18.859-12.712 20.248z"
      fill="#fff" fill-rule="nonzero"/>
    <clipPath id="b">
      <path
        d="M43.958 131.744c-1.298-4.924 1.365-31.479-1.388-51.842-1.175-8.691-2.988-17.272-4.31-25.937-1.038-6.82-1.984-13.624-5.636-19.613-.4-.651-1.128-.497-1.516-.041-.345-.028-.68.132-.826.575-6.282-2.088-14.288-1.933-15.125 3.482-7.903 48.436-3.479 57.639-5.172 85.843-.645 10.753-.328 16.958 2.36 32.431 3.495 8.883 23.03 14.377 30.974 16.325 35.932-19.585 75.89-87.538 74.411-90.236-1.927-3.517-10.088-1.331-14.006-6.312-3.622-4.605-4.493-3.945-4.456-6.252.077-4.595-26.209 21.574-42.598 41.329-8.33 10.042-11.077 18.859-12.712 20.248z"
        clip-rule="nonzero"/>
    </clipPath>
    <g clip-path="url(#b)" fill="#ccc">
      <path
        d="M37.477 143.797c1.022-4.935 3.526-8.525 6.021-12.935.164-.284.01-.613-.228-.344-2.703 3.072-7.348 9.377-7.574 13.677-.068 1.29 1.481 1.043 1.781-.398zM45.591 156.679c-.402 3.628-2.025 6.407-3.579 9.774-.102.217.038.442.198.23 1.811-2.423 4.847-7.323 4.696-10.431-.045-.932-1.196-.632-1.315.427zM49.749 147.961c-3.086-6.079-3.416-11.903-4.458-18.601-.063-.434-.509-.661-.538-.184-.329 5.436-.014 15.869 3.398 20.631 1.02 1.425 2.493-.073 1.598-1.846zM41.721 137.674a29.968 29.968 0 0 0-1.801 6.334c-.295 1.865-.207 4.899 1.471 6.311 1.639 1.38 3.864-.988 2.184-2.188-1.063-.753-.882-3.344-1.077-4.532-.314-1.917-.568-3.826-.265-5.733.042-.271-.394-.48-.512-.192z"/>
    </g>
    <path
      d="M54.393 113.774c-3.909-17.815-6.209-35.839-11.088-53.457-2.739-9.91-3.447-23.273-13.854-28.31-.696-.335-3.362-.661-5.762.029-6.323.881-10.551 2.32-13.421 5.225C-7.475 55.218 5.104 100.37 6.4 126.518c.091 1.833 5.066 4.027 7.611 4.05 11.033.102 33.616-11.739 38.066-13.143 1.359-.428 2.64-2.178 2.316-3.651z"
      fill="#58bd9d" fill-rule="nonzero"/>
  </g>
</svg>
