<?xml version="1.0" standalone="no"?>
<!DOCTYPE svg PUBLIC "-//W3C//DTD SVG 20010904//EN"
 "http://www.w3.org/TR/2001/REC-SVG-20010904/DTD/svg10.dtd">
<svg version="1.0" xmlns="http://www.w3.org/2000/svg"
 width="320.000000pt" height="320.000000pt" viewBox="0 0 320.000000 320.000000"
 preserveAspectRatio="xMidYMid meet">
<metadata>
Created by potrace 1.11, written by Peter Selinger 2001-2013
</metadata>
<g transform="translate(0.000000,320.000000) scale(0.100000,-0.100000)"
fill="#000000" stroke="none">
<path d="M2698 2875 c-2 -2 -79 -6 -173 -10 -93 -3 -190 -8 -215 -10 -25 -2
-108 -6 -185 -10 -77 -3 -171 -8 -210 -10 -38 -2 -119 -7 -180 -10 -60 -3
-141 -7 -180 -10 -38 -2 -110 -7 -160 -10 -94 -6 -192 -13 -285 -20 -30 -2
-95 -7 -145 -11 -49 -3 -106 -7 -125 -9 -19 -2 -73 -6 -120 -10 -47 -4 -101
-8 -120 -10 -19 -2 -73 -6 -120 -10 -47 -4 -97 -14 -113 -22 -38 -19 -68 -85
-57 -125 7 -22 266 -447 409 -668 9 -14 20 -33 26 -43 5 -9 44 -70 85 -135
228 -359 804 -1270 814 -1287 41 -70 99 -154 109 -158 30 -11 54 13 86 90 18
43 41 96 51 118 10 22 44 101 76 175 31 74 64 153 74 175 9 22 23 54 30 70 29
69 292 683 305 710 7 17 43 100 80 185 36 85 72 169 80 185 7 17 39 91 70 165
56 131 222 514 250 575 31 69 -11 125 -99 129 -30 2 -57 2 -58 1z"/>
</g>
</svg>
